SplineFontDB: 3.0
FontName: Riemann
FullName: Riemann
FamilyName: Riemann
Weight: Regular
Copyright: Copyright 2010, 2012, 2014 Adobe Systems Incorporated (http://www.adobe.com/), with Reserved Font Name 'Source'.\nChanged 2018 by Malte Meyn, named 'Riemann'.
Version: 0.1
ItalicAngle: 0
UnderlinePosition: -100
UnderlineWidth: 50
Ascent: 750
Descent: 250
InvalidEm: 0
sfntRevision: 0x0002051e
LayerCount: 2
Layer: 0 0 "Back" 1
Layer: 1 0 "Zeichen" 0
XUID: [1021 1007 -1624806197 6051723]
BaseHoriz: 2 'ideo' 'romn'
BaseScript: 'DFLT' 1  -170 0
BaseScript: 'cyrl' 1  -170 0
BaseScript: 'grek' 1  -170 0
BaseScript: 'latn' 1  -170 0
StyleMap: 0x0040
FSType: 0
OS2Version: 3
OS2_WeightWidthSlopeOnly: 0
OS2_UseTypoMetrics: 0
CreationTime: 1441032299
ModificationTime: 1533977262
PfmFamily: 17
TTFWeight: 400
TTFWidth: 5
LineGap: 0
VLineGap: 0
Panose: 2 11 5 3 3 4 3 2 2 4
OS2TypoAscent: 750
OS2TypoAOffset: 0
OS2TypoDescent: -250
OS2TypoDOffset: 0
OS2TypoLinegap: 0
OS2WinAscent: 984
OS2WinAOffset: 0
OS2WinDescent: 273
OS2WinDOffset: 0
HheadAscent: 984
HheadAOffset: 0
HheadDescent: -273
HheadDOffset: 0
OS2SubXSize: 650
OS2SubYSize: 600
OS2SubXOff: 0
OS2SubYOff: 75
OS2SupXSize: 650
OS2SupYSize: 600
OS2SupXOff: 0
OS2SupYOff: 350
OS2StrikeYSize: 50
OS2StrikeYPos: 291
OS2CapHeight: 660
OS2XHeight: 486
OS2Vendor: 'ADBO'
OS2CodePages: 2000019f.00000000
OS2UnicodeRanges: 600002f7.02000001.00000000.00000000
Lookup: 1 0 0 "'ss01' Style Set 1 lookup 0" { "'ss01' Style Set 1 lookup 0 subtable"  } ['salt' ('DFLT' <'dflt' > 'cyrl' <'SRB ' 'dflt' > 'grek' <'dflt' > 'latn' <'AZE ' 'CRT ' 'NSM ' 'SKS ' 'TRK ' 'dflt' > ) 'ss01' ('DFLT' <'dflt' > 'cyrl' <'SRB ' 'dflt' > 'grek' <'dflt' > 'latn' <'AZE ' 'CRT ' 'NSM ' 'SKS ' 'TRK ' 'dflt' > ) ]

StartChar: .notdef
Encoding: 1114112 -1 0
Width: 500
Flags: MW
HStem: 0 50<100 400 100 450> 450 50<100 400 100 100>
VStem: 50 50<50 50 50 450> 400 50<50 450 450 450>
LayerCount: 2
Fore
SplineSet
50 0 m 1
 50 500 l 1
 450 500 l 1
 450 0 l 1
 50 0 l 1
100 50 m 1
 400 50 l 1
 400 450 l 1
 100 450 l 1
 100 50 l 1
EndSplineSet
Validated: 1
EndChar

StartChar: parenleft
Encoding: 40 40 2
Width: 303
GlyphClass: 2
Flags: MW
HStem: -176 908<214 214>
VStem: 82 68<202 354 202 366>
LayerCount: 2
Fore
SplineSet
214 -176 m 1
 131 -42 82 102 82 278 c 0
 82 454 131 598 214 732 c 1
 265 708 l 1
 188 581 150 430 150 278 c 0
 150 126 188 -25 265 -152 c 1
 214 -176 l 1
EndSplineSet
Validated: 1
EndChar

StartChar: parenright
Encoding: 41 41 3
Width: 303
GlyphClass: 2
Flags: MW
HStem: -176 908<89 89>
VStem: 153 68<202 354>
LayerCount: 2
Fore
SplineSet
89 -176 m 1
 38 -152 l 1
 115 -25 153 126 153 278 c 0
 153 430 115 581 38 708 c 1
 89 732 l 1
 172 598 221 454 221 278 c 0
 221 102 172 -42 89 -176 c 1
EndSplineSet
Validated: 1
EndChar

StartChar: hyphen
Encoding: 45 45 4
Width: 311
GlyphClass: 2
Flags: MW
HStem: 219 63<41 271 41 271>
VStem: 41 230<219 282 219 282>
LayerCount: 2
Fore
SplineSet
41 219 m 1
 41 282 l 1
 271 282 l 1
 271 219 l 1
 41 219 l 1
EndSplineSet
Validated: 1
EndChar

StartChar: period
Encoding: 46 46 5
Width: 249
GlyphClass: 2
Flags: MW
HStem: -12 126<108.5 141>
VStem: 65 119<32 69>
LayerCount: 2
Fore
SplineSet
125 -12 m 0
 92 -12 65 14 65 50 c 0
 65 88 92 114 125 114 c 0
 157 114 184 88 184 50 c 0
 184 14 157 -12 125 -12 c 0
EndSplineSet
Validated: 1
EndChar

StartChar: slash
Encoding: 47 47 6
Width: 350
GlyphClass: 2
Flags: MW
HStem: -160 870<10 337 10 337>
VStem: 10 327
LayerCount: 2
Fore
SplineSet
10 -160 m 1
 277 710 l 1
 337 710 l 1
 70 -160 l 1
 10 -160 l 1
EndSplineSet
Validated: 1
EndChar

StartChar: zero
Encoding: 48 48 7
Width: 497
GlyphClass: 2
Flags: MW
HStem: -12 66<211.5 286 211.5 312.5> 584 66<211.5 286>
VStem: 44 80<227.5 414.5 227.5 428> 373 80<227.5 414.5>
LayerCount: 2
Fore
SplineSet
249 -12 m 0
 121 -12 44 107 44 321 c 0
 44 535 121 650 249 650 c 0
 376 650 453 535 453 321 c 0
 453 107 376 -12 249 -12 c 0
249 54 m 0
 323 54 373 134 373 321 c 0
 373 508 323 584 249 584 c 0
 174 584 124 508 124 321 c 0
 124 134 174 54 249 54 c 0
EndSplineSet
Validated: 1
EndChar

StartChar: one
Encoding: 49 49 8
Width: 497
GlyphClass: 2
Flags: MW
HStem: 0 68<79 225 79 225 307 439> 538 100<109 307>
VStem: 225 82<68 538 538 538>
LayerCount: 2
Fore
SplineSet
79 0 m 1
 79 68 l 1
 225 68 l 1
 225 538 l 1
 109 538 l 1
 109 591 l 1
 167 601 209 617 244 638 c 1
 307 638 l 1
 307 68 l 1
 439 68 l 1
 439 0 l 1
 79 0 l 1
EndSplineSet
Validated: 1
EndChar

StartChar: two
Encoding: 50 50 9
Width: 497
GlyphClass: 2
Flags: MW
HStem: 0 71<267 452 267 452> 583 67<192.5 259.5>
VStem: 340 80<406.5 494.5>
LayerCount: 2
Fore
SplineSet
40 0 m 1
 40 49 l 1
 232 240 340 355 340 458 c 0
 340 531 300 583 219 583 c 0
 166 583 120 549 83 506 c 1
 36 553 l 1
 89 611 146 650 229 650 c 0
 347 650 420 575 420 462 c 0
 420 342 311 223 160 65 c 1
 195 68 234 71 267 71 c 2
 452 71 l 1
 452 0 l 1
 40 0 l 1
EndSplineSet
Validated: 1
EndChar

StartChar: three
Encoding: 51 51 10
Width: 497
GlyphClass: 2
Flags: MW
HStem: -12 68<193.5 269.5 193.5 294.5> 300 63<159 227 159 235> 583 67<203.5 264>
VStem: 159 149<332 336 332 363 332 363> 340 84<449.5 513> 363 83<137.5 211>
LayerCount: 2
Fore
SplineSet
236 -12 m 0xf4
 134 -12 69 31 26 78 c 1
 68 132 l 1
 106 92 156 56 231 56 c 0
 308 56 363 102 363 173 c 0xf4
 363 249 311 300 159 300 c 1
 159 363 l 1
 295 363 340 415 340 482 c 0
 340 544 298 583 230 583 c 0
 177 583 132 556 94 518 c 1
 50 570 l 1
 99 616 158 650 233 650 c 0
 344 650 424 591 424 488 c 0xf8
 424 411 377 362 308 336 c 1
 308 332 l 1
 385 314 446 258 446 170 c 0
 446 57 353 -12 236 -12 c 0xf4
EndSplineSet
Validated: 1
EndChar

StartChar: four
Encoding: 52 52 11
Width: 497
GlyphClass: 2
Flags: MW
HStem: 0 21G<304 304 304 382> 176 66<104 304 104 304 382 469> 550 88<305 309 305 305>
VStem: 304 78<0 176 0 176 242 427 427 444>
LayerCount: 2
Fore
SplineSet
304 0 m 1
 304 176 l 1
 17 176 l 1
 17 230 l 1
 290 638 l 1
 382 638 l 1
 382 242 l 1
 469 242 l 1
 469 176 l 1
 382 176 l 1
 382 0 l 1
 304 0 l 1
104 242 m 1
 304 242 l 1
 304 427 l 2
 304 461 307 516 309 550 c 1
 305 550 l 1
 289 519 271 491 253 460 c 2
 104 242 l 1
EndSplineSet
Validated: 1
EndChar

StartChar: five
Encoding: 53 53 12
Width: 497
GlyphClass: 2
Flags: MW
HStem: -12 68<188.5 265 188.5 289.5> 342 62<231.5 271> 567 71<170 417 170 170>
VStem: 366 83<157.5 246>
LayerCount: 2
Fore
SplineSet
234 -12 m 0
 132 -12 69 31 25 75 c 1
 65 129 l 1
 103 91 151 56 226 56 c 0
 304 56 366 113 366 202 c 0
 366 290 312 342 230 342 c 0
 186 342 159 328 121 303 c 1
 77 331 l 1
 98 638 l 1
 417 638 l 1
 417 567 l 1
 170 567 l 1
 153 378 l 1
 183 394 212 404 251 404 c 0
 360 404 449 342 449 204 c 0
 449 66 345 -12 234 -12 c 0
EndSplineSet
Validated: 1
EndChar

StartChar: six
Encoding: 54 54 13
Width: 497
GlyphClass: 2
Flags: MW
HStem: -12 65<227.5 299.5 227.5 319.5> 328 62<249 300.5> 581 69<249.5 314>
VStem: 48 78 379 78<151 234.5>
LayerCount: 2
Fore
SplineSet
268 -12 m 0
 143 -12 48 90 48 295 c 0
 48 551 164 650 291 650 c 0
 360 650 409 621 445 582 c 1
 399 531 l 1
 373 562 334 581 294 581 c 0
 205 581 130 512 126 310 c 1
 166 359 223 390 275 390 c 0
 385 390 457 324 457 193 c 0
 457 71 371 -12 268 -12 c 0
268 53 m 0
 331 53 379 109 379 193 c 0
 379 276 340 328 261 328 c 0
 220 328 168 303 128 244 c 1
 138 120 187 53 268 53 c 0
EndSplineSet
Validated: 1
EndChar

StartChar: seven
Encoding: 55 55 14
Width: 497
GlyphClass: 2
Flags: MW
HStem: 0 21G<177 177 177 262> 567 71<44 362 44 455>
VStem: 177 85<0 0>
LayerCount: 2
Fore
SplineSet
177 0 m 1
 188 240 236 392 362 567 c 1
 44 567 l 1
 44 638 l 1
 455 638 l 1
 455 587 l 1
 304 394 273 249 262 0 c 1
 177 0 l 1
EndSplineSet
Validated: 1
EndChar

StartChar: eight
Encoding: 56 56 15
Width: 497
GlyphClass: 2
Flags: MW
HStem: -12 61<213 289 213 312> 589 61<221.5 286>
VStem: 41 74<135.5 200 135.5 204.5> 72 76<452.5 517 448 535> 362 71<452.5 507.5> 377 79<128 201 110.5 202>
LayerCount: 2
Fore
SplineSet
250 -12 m 0xe4
 130 -12 41 62 41 163 c 0xe4
 41 246 101 303 161 335 c 1
 161 339 l 1
 114 372 72 419 72 486 c 0
 72 584 150 650 253 650 c 0
 364 650 433 579 433 480 c 0xd8
 433 413 384 356 345 326 c 1
 345 322 l 1
 402 289 456 244 456 158 c 0
 456 63 374 -12 250 -12 c 0xe4
295 348 m 1xd8
 338 386 362 429 362 476 c 0
 362 539 321 589 251 589 c 0
 192 589 148 548 148 486 c 0
 148 410 218 378 295 348 c 1xd8
252 49 m 0xe4
 326 49 377 95 377 161 c 0
 377 243 296 273 204 310 c 1
 153 276 115 229 115 171 c 0
 115 100 174 49 252 49 c 0xe4
EndSplineSet
Validated: 1
EndChar

StartChar: nine
Encoding: 57 57 16
Width: 497
GlyphClass: 2
Flags: MW
HStem: -12 68<182 247 182 268.5> 248 62<195.5 247.5> 585 65<197 268.5>
VStem: 40 77<403.5 487 403.5 506> 371 77
LayerCount: 2
Fore
SplineSet
235 310 m 0
 277 310 328 335 369 395 c 1
 358 519 309 585 228 585 c 0
 166 585 117 529 117 445 c 0
 117 362 156 310 235 310 c 0
205 -12 m 0
 137 -12 86 17 51 55 c 1
 97 107 l 1
 123 76 162 56 202 56 c 0
 292 56 368 126 371 330 c 1
 331 279 274 248 221 248 c 0
 111 248 40 314 40 445 c 0
 40 567 126 650 228 650 c 0
 354 650 448 548 448 343 c 0
 448 87 332 -12 205 -12 c 0
EndSplineSet
Validated: 1
EndChar

StartChar: less
Encoding: 60 60 17
Width: 497
GlyphClass: 2
Flags: MW
HStem: 131 402<463 463>
VStem: 34 84<330 334 330 365 330 365>
LayerCount: 2
Fore
SplineSet
463 131 m 1
 34 299 l 1
 34 365 l 1
 463 533 l 1
 463 462 l 1
 252 384 l 1
 118 334 l 1
 118 330 l 1
 252 280 l 1
 463 202 l 1
 463 131 l 1
EndSplineSet
Validated: 1
EndChar

StartChar: equal
Encoding: 61 61 18
Width: 497
GlyphClass: 2
Flags: MW
HStem: 192 62<34 463 34 463> 406 62<34 463 34 463>
VStem: 34 429<192 254 192 254 406 468 192 468>
LayerCount: 2
Fore
SplineSet
34 406 m 1
 34 468 l 1
 463 468 l 1
 463 406 l 1
 34 406 l 1
34 192 m 1
 34 254 l 1
 463 254 l 1
 463 192 l 1
 34 192 l 1
EndSplineSet
Validated: 1
EndChar

StartChar: greater
Encoding: 62 62 19
Width: 497
GlyphClass: 2
Flags: MW
HStem: 131 402<34 34>
VStem: 379 84<330 334 334 334>
LayerCount: 2
Fore
SplineSet
34 131 m 1
 34 202 l 1
 245 280 l 1
 379 330 l 1
 379 334 l 1
 245 384 l 1
 34 462 l 1
 34 533 l 1
 463 365 l 1
 463 299 l 1
 34 131 l 1
EndSplineSet
Validated: 1
EndChar

StartChar: A
Encoding: 65 65 20
Width: 544
GlyphClass: 2
Flags: MW
HStem: 0 21G<3 3 3 88 452 452 452 541> 200 67<172 369 172 390 151 369> 588 68<268 272 268 268>
VStem: 3 538<0 0>
LayerCount: 2
Fore
SplineSet
203 367 m 2
 172 267 l 1
 369 267 l 1
 338 367 l 2
 314 440 293 512 272 588 c 1
 268 588 l 1
 248 512 227 440 203 367 c 2
3 0 m 1
 225 656 l 1
 319 656 l 1
 541 0 l 1
 452 0 l 1
 390 200 l 1
 151 200 l 1
 88 0 l 1
 3 0 l 1
EndSplineSet
Validated: 1
EndChar

StartChar: B
Encoding: 66 66 21
Width: 588
GlyphClass: 2
Flags: MW
HStem: 0 66<173 287 287 299> 313 64<173 270 270 287 173 270> 590 66<173 274 173 173>
VStem: 90 83<66 66 66 313 377 590> 428 82<463.5 523> 466 82<151 235.5>
LayerCount: 2
Fore
SplineSet
90 0 m 1xf4
 90 656 l 1
 285 656 l 2
 418 656 510 611 510 496 c 0xf8
 510 431 476 373 414 353 c 1
 414 349 l 1
 493 334 548 282 548 192 c 0
 548 63 446 0 299 0 c 2
 90 0 l 1xf4
173 377 m 1
 270 377 l 2
 382 377 428 418 428 485 c 0
 428 561 376 590 274 590 c 2
 173 590 l 1
 173 377 l 1
173 66 m 1
 287 66 l 2
 400 66 466 107 466 195 c 0xf4
 466 276 402 313 287 313 c 2
 173 313 l 1
 173 66 l 1
EndSplineSet
Validated: 1
EndChar

StartChar: C
Encoding: 67 67 22
Width: 571
GlyphClass: 2
Flags: MW
HStem: -12 73<279 372.5 279 380.5> 595 73<282 372>
VStem: 52 86<247.5 411.5 247.5 433.5>
LayerCount: 2
Fore
SplineSet
338 -12 m 0
 174 -12 52 114 52 328 c 0
 52 539 176 668 343 668 c 0
 423 668 485 630 523 587 c 1
 478 533 l 1
 443 570 400 595 344 595 c 0
 220 595 138 493 138 330 c 0
 138 165 217 61 341 61 c 0
 404 61 451 89 493 135 c 1
 539 83 l 1
 487 23 423 -12 338 -12 c 0
EndSplineSet
Validated: 1
EndChar

StartChar: D
Encoding: 68 68 23
Width: 615
GlyphClass: 2
Flags: MW
HStem: 0 68<173 248 248 258> 588 68<173 248 173 173>
VStem: 90 83<68 68 68 588> 478 86<248 413.5>
LayerCount: 2
Fore
SplineSet
90 0 m 1
 90 656 l 1
 254 656 l 2
 456 656 564 539 564 331 c 0
 564 122 456 0 258 0 c 2
 90 0 l 1
173 68 m 1
 248 68 l 2
 401 68 478 165 478 331 c 0
 478 496 401 588 248 588 c 2
 173 588 l 1
 173 68 l 1
EndSplineSet
Validated: 1
EndChar

StartChar: E
Encoding: 69 69 24
Width: 527
GlyphClass: 2
Flags: MW
HStem: 0 71<173 478 173 478> 309 71<173 422 173 422> 586 70<173 468 173 173>
VStem: 90 83<71 309 380 586>
LayerCount: 2
Fore
SplineSet
90 0 m 1
 90 656 l 1
 468 656 l 1
 468 586 l 1
 173 586 l 1
 173 380 l 1
 422 380 l 1
 422 309 l 1
 173 309 l 1
 173 71 l 1
 478 71 l 1
 478 0 l 1
 90 0 l 1
EndSplineSet
Validated: 1
EndChar

StartChar: F
Encoding: 70 70 25
Width: 494
GlyphClass: 2
Flags: MW
HStem: 0 21G<90 90 90 173> 294 70<173 423 173 423> 586 70<173 468 173 173>
VStem: 90 83<0 294 364 586>
LayerCount: 2
Fore
SplineSet
90 0 m 1
 90 656 l 1
 468 656 l 1
 468 586 l 1
 173 586 l 1
 173 364 l 1
 423 364 l 1
 423 294 l 1
 173 294 l 1
 173 0 l 1
 90 0 l 1
EndSplineSet
Validated: 1
EndChar

StartChar: G
Encoding: 71 71 26
Width: 617
GlyphClass: 2
Flags: MW
HStem: -12 73<286 379.5 286 392> 271 69<335 474 335 550> 595 73<289 388>
VStem: 52 86<247.5 411.5 247.5 433.5> 474 76<100 271 271 271>
LayerCount: 2
Fore
SplineSet
348 -12 m 0
 175 -12 52 114 52 328 c 0
 52 539 179 668 353 668 c 0
 444 668 504 627 542 587 c 1
 496 533 l 1
 463 567 421 595 355 595 c 0
 223 595 138 493 138 330 c 0
 138 165 216 61 356 61 c 0
 403 61 448 76 474 100 c 1
 474 271 l 1
 335 271 l 1
 335 340 l 1
 550 340 l 1
 550 64 l 1
 508 20 436 -12 348 -12 c 0
EndSplineSet
Validated: 1
EndChar

StartChar: H
Encoding: 72 72 27
Width: 652
GlyphClass: 2
Flags: MW
HStem: 0 21G<90 90 90 173 478 478 478 562> 309 72<173 478 173 478> 636 20G<90 173 173 173 478 562 562 562>
VStem: 90 83<0 309 381 656> 478 84<0 309 309 309 381 656 0 656>
LayerCount: 2
Fore
SplineSet
90 0 m 1
 90 656 l 1
 173 656 l 1
 173 381 l 1
 478 381 l 1
 478 656 l 1
 562 656 l 1
 562 0 l 1
 478 0 l 1
 478 309 l 1
 173 309 l 1
 173 0 l 1
 90 0 l 1
EndSplineSet
Validated: 1
EndChar

StartChar: I
Encoding: 73 73 28
Width: 263
GlyphClass: 2
Flags: MW
HStem: 0 21G<90 90 90 173> 636 20G<90 173 173 173>
VStem: 90 83<0 656 0 656>
LayerCount: 2
Fore
SplineSet
90 0 m 1
 90 656 l 1
 173 656 l 1
 173 0 l 1
 90 0 l 1
EndSplineSet
Validated: 1
EndChar

StartChar: J
Encoding: 74 74 29
Width: 480
GlyphClass: 2
Flags: MW
HStem: -12 73<180.5 239 180.5 276> 636 20G<309 393 393 393>
VStem: 309 84<201 656>
LayerCount: 2
Fore
SplineSet
212 -12 m 0
 129 -12 69 24 31 93 c 1
 91 135 l 1
 120 83 157 61 204 61 c 0
 274 61 309 101 309 201 c 2
 309 656 l 1
 393 656 l 1
 393 193 l 2
 393 80 340 -12 212 -12 c 0
EndSplineSet
Validated: 1
EndChar

StartChar: K
Encoding: 75 75 30
Width: 579
GlyphClass: 2
Flags: MW
HStem: 0 21G<90 90 90 173 482 482 482 575> 636 20G<90 173 173 173 449 543 543 543>
VStem: 90 83<0 208 327 656>
LayerCount: 2
Fore
SplineSet
90 0 m 1
 90 656 l 1
 173 656 l 1
 173 327 l 1
 176 327 l 1
 449 656 l 1
 543 656 l 1
 338 406 l 1
 575 0 l 1
 482 0 l 1
 286 341 l 1
 173 208 l 1
 173 0 l 1
 90 0 l 1
EndSplineSet
Validated: 1
EndChar

StartChar: L
Encoding: 76 76 31
Width: 486
GlyphClass: 2
Flags: MW
HStem: 0 71<173 460 173 460> 636 20G<90 173 173 173>
VStem: 90 83<71 656 71 656 71 656>
LayerCount: 2
Fore
SplineSet
90 0 m 1
 90 656 l 1
 173 656 l 1
 173 71 l 1
 460 71 l 1
 460 0 l 1
 90 0 l 1
EndSplineSet
Validated: 1
EndChar

StartChar: M
Encoding: 77 77 32
Width: 727
GlyphClass: 2
Flags: MW
HStem: 0 21G<90 90 90 165 559 559 559 637> 66 103<363 367 363 390 335 367> 555 101<155 159 155 155 566 570 566 566>
VStem: 90 75<0 361 0 656> 559 78<0 361 361 390>
LayerCount: 2
Fore
SplineSet
90 0 m 1
 90 656 l 1
 190 656 l 1
 316 306 l 2
 332 261 347 214 363 169 c 1
 367 169 l 1
 383 214 396 261 412 306 c 2
 536 656 l 1
 637 656 l 1
 637 0 l 1
 559 0 l 1
 559 361 l 2
 559 419 566 497 570 555 c 1
 566 555 l 1
 514 406 l 1
 390 66 l 1
 335 66 l 1
 211 406 l 1
 159 555 l 1
 155 555 l 1
 159 497 165 419 165 361 c 2
 165 0 l 1
 90 0 l 1
EndSplineSet
Validated: 1
EndChar

StartChar: N
Encoding: 78 78 33
Width: 647
GlyphClass: 2
Flags: MW
HStem: 0 21G<90 90 90 169 471 471 471 557> 0 108<471 488 484 488 484 557> 548 108<158 162 158 158> 636 20G<90 176 176 176 478 557 557 557>
VStem: 90 79<0 343 0 656> 478 79<317 656 0 656>
LayerCount: 2
Fore
SplineSet
90 0 m 1x9c
 90 656 l 1
 176 656 l 1
 413 244 l 1
 484 108 l 1
 488 108 l 1x5c
 484 174 478 248 478 317 c 2
 478 656 l 1
 557 656 l 1
 557 0 l 1
 471 0 l 1
 233 413 l 1
 162 548 l 1
 158 548 l 1xac
 163 482 169 412 169 343 c 2
 169 0 l 1
 90 0 l 1x9c
EndSplineSet
Validated: 1
EndChar

StartChar: O
Encoding: 79 79 34
Width: 664
GlyphClass: 2
Flags: MW
HStem: -12 73<273.5 390.5 273.5 414.5> 595 73<273.5 390.5>
VStem: 52 86<249 412.5 249 436> 526 87<249 412.5>
LayerCount: 2
Fore
SplineSet
332 -12 m 0
 167 -12 52 120 52 331 c 0
 52 541 167 668 332 668 c 0
 497 668 613 540 613 331 c 0
 613 120 497 -12 332 -12 c 0
332 61 m 0
 449 61 526 167 526 331 c 0
 526 494 449 595 332 595 c 0
 215 595 138 494 138 331 c 0
 138 167 215 61 332 61 c 0
EndSplineSet
Validated: 1
EndChar

StartChar: P
Encoding: 80 80 35
Width: 566
GlyphClass: 2
Flags: MW
HStem: 0 21G<90 90 90 173> 260 68<173 271 271 281 173 271> 589 67<173 267 173 173>
VStem: 90 83<0 260 328 589> 440 83<416.5 510.5>
LayerCount: 2
Fore
SplineSet
90 0 m 1
 90 656 l 1
 277 656 l 2
 424 656 523 607 523 463 c 0
 523 325 425 260 281 260 c 2
 173 260 l 1
 173 0 l 1
 90 0 l 1
173 328 m 1
 271 328 l 2
 385 328 440 370 440 463 c 0
 440 558 382 589 267 589 c 2
 173 589 l 1
 173 328 l 1
EndSplineSet
Validated: 1
EndChar

StartChar: Q
Encoding: 81 81 36
Width: 664
GlyphClass: 2
Flags: MW
HStem: -165 70<506.5 552.5> -8 65 595 73<273.5 390.5>
VStem: 52 86<247 412.5 247 436> 526 87<247 412.5>
LayerCount: 2
Fore
SplineSet
332 57 m 0
 449 57 526 163 526 331 c 0
 526 494 449 595 332 595 c 0
 215 595 138 494 138 331 c 0
 138 163 215 57 332 57 c 0
533 -165 m 0
 412 -165 329 -99 291 -9 c 1
 148 11 52 138 52 331 c 0
 52 541 167 668 332 668 c 0
 497 668 613 540 613 331 c 0
 613 142 520 16 381 -8 c 1
 411 -66 471 -95 542 -95 c 0
 571 -95 593 -91 611 -86 c 1
 627 -150 l 1
 607 -158 572 -165 533 -165 c 0
EndSplineSet
Validated: 1
EndChar

StartChar: R
Encoding: 82 82 37
Width: 569
GlyphClass: 2
Flags: MW
HStem: 0 21G<90 90 90 173 450 450 450 544> 277 68<173 283 283 292 173 283> 589 67<173 283 173 173>
VStem: 90 83<0 277 345 589> 442 83<429.5 515>
LayerCount: 2
Fore
SplineSet
90 0 m 1
 90 656 l 1
 295 656 l 2
 429 656 525 608 525 472 c 0
 525 370 467 308 377 286 c 1
 544 0 l 1
 450 0 l 1
 292 277 l 1
 173 277 l 1
 173 0 l 1
 90 0 l 1
173 345 m 1
 283 345 l 2
 385 345 442 387 442 472 c 0
 442 558 385 589 283 589 c 2
 173 589 l 1
 173 345 l 1
EndSplineSet
Validated: 1
EndChar

StartChar: S
Encoding: 83 83 38
Width: 534
GlyphClass: 2
Flags: MW
HStem: -12 73<239 316 239 341> 595 73<243.5 310.5>
VStem: 74 84<467.5 528.5 467.5 544> 410 85<136 201.5>
LayerCount: 2
Fore
SplineSet
272 -12 m 0
 180 -12 99 26 42 85 c 1
 92 143 l 1
 139 94 205 61 273 61 c 0
 359 61 410 104 410 168 c 0
 410 235 363 256 301 284 c 2
 207 325 l 2
 145 351 74 398 74 494 c 0
 74 594 161 668 280 668 c 0
 358 668 427 635 474 587 c 1
 429 533 l 1
 389 571 341 595 280 595 c 0
 207 595 158 558 158 499 c 0
 158 436 215 412 267 390 c 2
 360 350 l 2
 436 317 495 272 495 175 c 0
 495 71 410 -12 272 -12 c 0
EndSplineSet
Validated: 1
EndChar

StartChar: T
Encoding: 84 84 39
Width: 536
GlyphClass: 2
Flags: MW
HStem: 0 21G<226 226 226 310> 586 70<28 226 28 508 310 310 310 508>
VStem: 226 84<0 586 0 586>
LayerCount: 2
Fore
SplineSet
226 0 m 1
 226 586 l 1
 28 586 l 1
 28 656 l 1
 508 656 l 1
 508 586 l 1
 310 586 l 1
 310 0 l 1
 226 0 l 1
EndSplineSet
Validated: 1
EndChar

StartChar: U
Encoding: 85 85 40
Width: 645
GlyphClass: 2
Flags: MW
HStem: -12 73<280 366.5 280 390> 636 20G<87 170 170 170 478 558 558 558>
VStem: 87 83<271 656> 478 80<269 271 271 656>
LayerCount: 2
Fore
SplineSet
323 -12 m 0
 189 -12 87 60 87 271 c 2
 87 656 l 1
 170 656 l 1
 170 269 l 2
 170 111 237 61 323 61 c 0
 410 61 478 111 478 269 c 2
 478 656 l 1
 558 656 l 1
 558 271 l 2
 558 60 457 -12 323 -12 c 0
EndSplineSet
Validated: 1
EndChar

StartChar: V
Encoding: 86 86 41
Width: 515
GlyphClass: 2
Flags: MW
HStem: 0 85<210 262 258 262 258 307> 636 20G<0 89 89 89 430 515 515 515>
VStem: 0 515<656 656>
LayerCount: 2
Fore
SplineSet
210 0 m 1
 0 656 l 1
 89 656 l 1
 194 302 l 2
 218 224 233 162 258 85 c 1
 262 85 l 1
 286 162 302 224 325 302 c 2
 430 656 l 1
 515 656 l 1
 307 0 l 1
 210 0 l 1
EndSplineSet
Validated: 1
EndChar

StartChar: W
Encoding: 87 87 42
Width: 786
GlyphClass: 2
Flags: MW
HStem: 0 87<162 220 216 220 216 261 572 576> 544 112<391 395 391 391> 636 20G<23 109 109 109 357 433 433 433 682 762 762 762>
VStem: 23 739<656 656>
LayerCount: 2
Fore
SplineSet
162 0 m 1xb0
 23 656 l 1
 109 656 l 1
 178 299 l 2
 190 228 204 158 216 87 c 1
 220 87 l 1
 235 158 251 229 266 299 c 2
 357 656 l 1
 433 656 l 1
 524 299 l 2
 540 230 556 158 572 87 c 1
 576 87 l 1
 588 158 600 229 613 299 c 2
 682 656 l 1
 762 656 l 1
 626 0 l 1
 526 0 l 1
 427 395 l 2
 415 446 405 493 395 544 c 1
 391 544 l 1xd0
 381 493 369 446 358 395 c 2
 261 0 l 1
 162 0 l 1xb0
EndSplineSet
Validated: 1
EndChar

StartChar: X
Encoding: 88 88 43
Width: 513
GlyphClass: 2
Flags: MW
HStem: 0 21G<15 15 15 103 406 406 406 498> 636 20G<28 120 120 120 398 486 486 486>
VStem: 15 483<0 0>
LayerCount: 2
Fore
SplineSet
15 0 m 1
 206 339 l 1
 28 656 l 1
 120 656 l 1
 209 488 l 2
 226 458 240 431 260 393 c 1
 264 393 l 1
 282 431 295 458 311 488 c 2
 398 656 l 1
 486 656 l 1
 307 335 l 1
 498 0 l 1
 406 0 l 1
 310 177 l 2
 293 209 275 242 254 282 c 1
 250 282 l 1
 231 242 214 209 198 177 c 2
 103 0 l 1
 15 0 l 1
EndSplineSet
Validated: 1
EndChar

StartChar: Y
Encoding: 89 89 44
Width: 476
GlyphClass: 2
Flags: MW
HStem: 0 21G<196 196 196 280> 636 20G<-1 88 88 88 390 477 477 477>
VStem: 196 84<0 254 0 254>
LayerCount: 2
Fore
SplineSet
196 0 m 1
 196 254 l 1
 -1 656 l 1
 88 656 l 1
 173 471 l 2
 194 423 214 377 236 328 c 1
 240 328 l 1
 263 377 286 423 306 471 c 2
 390 656 l 1
 477 656 l 1
 280 254 l 1
 280 0 l 1
 196 0 l 1
EndSplineSet
Validated: 1
EndChar

StartChar: Z
Encoding: 90 90 45
Width: 539
GlyphClass: 2
Flags: MW
HStem: 0 71<148 497 148 497> 586 70<76 390 76 494>
VStem: 45 452<0 50 50 50>
LayerCount: 2
Fore
SplineSet
45 0 m 1
 45 50 l 1
 390 586 l 1
 76 586 l 1
 76 656 l 1
 494 656 l 1
 494 607 l 1
 148 71 l 1
 497 71 l 1
 497 0 l 1
 45 0 l 1
EndSplineSet
Validated: 1
EndChar

StartChar: bracketleft
Encoding: 91 91 46
Width: 303
GlyphClass: 2
Flags: MW
HStem: -152 47<156 273 156 273> 661 47<156 273 156 156>
VStem: 94 62<-105 661 -105 708 -105 708>
LayerCount: 2
Fore
SplineSet
94 -152 m 1
 94 708 l 1
 273 708 l 1
 273 661 l 1
 156 661 l 1
 156 -105 l 1
 273 -105 l 1
 273 -152 l 1
 94 -152 l 1
EndSplineSet
Validated: 1
EndChar

StartChar: bracketright
Encoding: 93 93 47
Width: 303
GlyphClass: 2
Flags: MW
HStem: -152 47<31 147 31 147 31 209> 661 47<31 147 31 209>
VStem: 147 62<-105 661 661 661>
LayerCount: 2
Fore
SplineSet
31 -152 m 1
 31 -105 l 1
 147 -105 l 1
 147 661 l 1
 31 661 l 1
 31 708 l 1
 209 708 l 1
 209 -152 l 1
 31 -152 l 1
EndSplineSet
Validated: 1
EndChar

StartChar: asciicircum
Encoding: 94 94 48
Width: 497
GlyphClass: 2
Flags: MW
HStem: 593 77<247 251 247 247>
VStem: 60 377<284 284>
LayerCount: 2
Fore
SplineSet
60 284 m 1
 212 670 l 1
 285 670 l 1
 437 284 l 1
 365 284 l 1
 300 460 l 1
 251 593 l 1
 247 593 l 1
 197 460 l 1
 132 284 l 1
 60 284 l 1
EndSplineSet
Validated: 1
EndChar

StartChar: underscore
Encoding: 95 95 49
Width: 500
GlyphClass: 2
Flags: MW
HStem: -126 55<12 488 12 488>
VStem: 12 476<-126 -71 -126 -71>
LayerCount: 2
Fore
SplineSet
12 -126 m 1
 12 -71 l 1
 488 -71 l 1
 488 -126 l 1
 12 -126 l 1
EndSplineSet
Validated: 1
EndChar

StartChar: a
Encoding: 97 97 50
Width: 504
GlyphClass: 2
Flags: MW
HStem: -12 66<194 224.5> 0 21G<365 433 365 365> 430 68<225 290>
VStem: 52 80<104.5 163 104.5 179> 350 83<119 254 254 254 0 339>
LayerCount: 2
Fore
SplineSet
194 -12 m 0xb8
 113 -12 52 39 52 126 c 0
 52 232 143 285 350 308 c 1
 350 370 330 430 250 430 c 0
 194 430 143 404 105 378 c 1
 73 435 l 1
 118 464 186 498 264 498 c 0
 383 498 433 419 433 298 c 2
 433 0 l 1
 365 0 l 1x78
 358 58 l 1
 355 58 l 1
 309 20 255 -12 194 -12 c 0xb8
218 54 m 0
 265 54 303 77 350 119 c 1
 350 254 l 1
 188 234 132 194 132 132 c 0
 132 77 170 54 218 54 c 0
EndSplineSet
Validated: 1
Substitution2: "'ss02' Style Set 2 lookup 1 subtable" a.a
EndChar

StartChar: b
Encoding: 98 98 51
Width: 553
GlyphClass: 2
Flags: MW
HStem: -12 69<274.5 323 267 352.5> 0 21G<82 148 82 82> 429 69<287 340> 692 20G<82 164 164 164>
VStem: 82 82<108 363 518 712> 422 85<190 303.5>
LayerCount: 2
Fore
SplineSet
297 -12 m 0xbc
 252 -12 201 11 158 50 c 1
 155 50 l 1xbc
 148 0 l 1
 82 0 l 1x7c
 82 712 l 1
 164 712 l 1
 164 518 l 1
 162 430 l 1
 206 469 260 498 314 498 c 0
 440 498 507 401 507 251 c 0
 507 85 408 -12 297 -12 c 0xbc
283 57 m 0
 363 57 422 130 422 250 c 0
 422 357 386 429 294 429 c 0
 253 429 210 406 164 363 c 1
 164 108 l 1
 207 71 251 57 283 57 c 0
EndSplineSet
Validated: 1
EndChar

StartChar: c
Encoding: 99 99 52
Width: 456
GlyphClass: 2
Flags: MW
HStem: -12 68<236.5 303> 430 68<239 302.5>
VStem: 46 85<186.5 298 186.5 323.5>
LayerCount: 2
Fore
SplineSet
274 -12 m 0
 145 -12 46 81 46 242 c 0
 46 405 155 498 280 498 c 0
 344 498 388 472 422 441 c 1
 380 387 l 1
 352 412 322 430 283 430 c 0
 195 430 131 354 131 242 c 0
 131 131 192 56 281 56 c 0
 326 56 365 78 395 105 c 1
 431 50 l 1
 387 11 332 -12 274 -12 c 0
EndSplineSet
Validated: 1
EndChar

StartChar: d
Encoding: 100 100 53
Width: 555
GlyphClass: 2
Flags: MW
HStem: -12 69<223.5 276.5> 0 21G<405 473 405 405> 429 69<233 286 202.5 292> 692 20G<390 473 473 473>
VStem: 47 85<185 298.5 185 321> 390 83<124 378 378 378 525 712 0 712>
LayerCount: 2
Fore
SplineSet
248 -12 m 0xbc
 126 -12 47 80 47 242 c 0
 47 400 147 498 258 498 c 0
 314 498 351 477 394 442 c 1
 390 525 l 1
 390 712 l 1
 473 712 l 1
 473 0 l 1
 405 0 l 1x7c
 398 57 l 1
 395 57 l 1
 357 20 305 -12 248 -12 c 0xbc
266 57 m 0
 311 57 350 79 390 124 c 1
 390 378 l 1
 349 415 312 429 272 429 c 0
 194 429 132 354 132 243 c 0
 132 127 181 57 266 57 c 0
EndSplineSet
Validated: 1
EndChar

StartChar: e
Encoding: 101 101 54
Width: 496
GlyphClass: 2
Flags: MW
HStem: -12 66<242.5 312 242.5 312> 223 59<127 386 126 455 127 127> 433 65<232 304>
VStem: 46 80<282 282 282 321.5> 386 72<282 331>
LayerCount: 2
Fore
SplineSet
279 -12 m 0
 149 -12 46 83 46 242 c 0
 46 401 153 498 264 498 c 0
 388 498 458 409 458 270 c 0
 458 253 457 235 455 223 c 1
 127 223 l 1
 133 120 196 54 289 54 c 0
 335 54 374 69 410 92 c 1
 439 38 l 1
 397 11 345 -12 279 -12 c 0
126 282 m 1
 386 282 l 1
 386 380 342 433 266 433 c 0
 198 433 136 378 126 282 c 1
EndSplineSet
Validated: 1
EndChar

StartChar: f
Encoding: 102 102 55
Width: 292
GlyphClass: 2
Flags: MW
HStem: 0 21G<96 96 96 178> 419 67<30 96 30 96 178 281> 657 67<223 253 189.5 255>
VStem: 96 82<0 419 0 419 486 563>
LayerCount: 2
Fore
SplineSet
96 0 m 1
 96 419 l 1
 30 419 l 1
 30 481 l 1
 96 486 l 1
 96 563 l 2
 96 662 141 724 238 724 c 0
 268 724 297 717 319 708 c 1
 301 645 l 1
 283 653 264 657 246 657 c 0
 200 657 178 625 178 563 c 2
 178 486 l 1
 281 486 l 1
 281 419 l 1
 178 419 l 1
 178 0 l 1
 96 0 l 1
EndSplineSet
Validated: 1
EndChar

StartChar: g
Encoding: 103 103 56
Width: 504
GlyphClass: 2
Flags: MW
HStem: -224 57<214 304.5 214 321.5> -8 68<228 230 230 314> 0 21G 154 55<234 274 218 295.5> 423 63<384 484 384 384> 438 60<217.5 259.5 196.5 274.5>
VStem: 45 72<-108 -72.5> 63 80<296 360.5 289.5 378> 73 69<97.5 120.5> 349 75<289.5 343.5 271 360.5> 412 80<-93.5 -45.5>
LayerCount: 2
Fore
SplineSet
246 -224 m 0xda20
 127 -224 45 -177 45 -93 c 0xda40
 45 -52 72 -13 116 17 c 1
 116 21 l 1
 92 36 73 62 73 100 c 0xd8c0
 73 141 101 173 126 190 c 1
 126 194 l 1
 94 220 63 267 63 325 c 0
 63 431 147 498 246 498 c 0xd540
 273 498 297 493 315 486 c 1
 484 486 l 1
 484 423 l 1
 384 423 l 1
 407 401 424 364 424 323 c 0
 424 219 345 154 246 154 c 0
 222 154 195 160 173 171 c 1
 156 156 142 140 142 113 c 0
 142 82 162 60 228 60 c 2xd8c0
 322 60 l 2
 435 60 492 25 492 -56 c 0
 492 -146 397 -224 246 -224 c 0xda20
246 209 m 0xd540
 302 209 349 254 349 325 c 0
 349 396 303 438 246 438 c 0
 189 438 143 396 143 325 c 0
 143 254 190 209 246 209 c 0xd540
258 -167 m 0xba20
 351 -167 412 -119 412 -68 c 0
 412 -23 377 -8 314 -8 c 2
 230 -8 l 2xd920
 211 -8 188 -6 167 0 c 1
 132 -25 117 -54 117 -82 c 0
 117 -134 170 -167 258 -167 c 0xba20
EndSplineSet
Validated: 1
Substitution2: "'ss03' Style Set 3 lookup 2 subtable" g.a
EndChar

StartChar: h
Encoding: 104 104 57
Width: 544
GlyphClass: 2
Flags: MW
HStem: 0 21G<82 82 82 164 389 389 389 471> 427 71<289.5 329> 692 20G<82 164 164 164>
VStem: 82 82<0 352 518 712> 389 82<0 297 297 308 0 342.5>
LayerCount: 2
Fore
SplineSet
82 0 m 1
 82 712 l 1
 164 712 l 1
 164 518 l 1
 161 418 l 1
 207 462 256 498 323 498 c 0
 425 498 471 432 471 308 c 2
 471 0 l 1
 389 0 l 1
 389 297 l 2
 389 388 361 427 297 427 c 0
 247 427 213 401 164 352 c 1
 164 0 l 1
 82 0 l 1
EndSplineSet
Validated: 1
EndChar

StartChar: i
Encoding: 105 105 58
Width: 246
GlyphClass: 2
Flags: MW
HStem: 0 21G<82 82 82 164> 466 20G<82 164 164 164> 586 106<108 140>
VStem: 67 114<623.5 655> 82 82<0 486 0 486>
LayerCount: 2
Fore
SplineSet
82 0 m 1xe8
 82 486 l 1
 164 486 l 1
 164 0 l 1
 82 0 l 1xe8
124 586 m 0xf0
 92 586 67 608 67 639 c 0
 67 671 92 692 124 692 c 0
 156 692 181 671 181 639 c 0
 181 608 156 586 124 586 c 0xf0
EndSplineSet
Validated: 1
EndChar

StartChar: j
Encoding: 106 106 59
Width: 247
GlyphClass: 2
Flags: MW
HStem: -217 67<17 47 14.5 80.5> 466 20G<83 165 165 165> 586 106<109 140.5>
VStem: 68 113<623.5 655> 83 82<-55 486>
LayerCount: 2
Fore
SplineSet
32 -217 m 0xe8
 2 -217 -23 -211 -40 -204 c 1
 -23 -142 l 1
 -11 -146 6 -150 23 -150 c 0
 71 -150 83 -114 83 -55 c 2
 83 486 l 1
 165 486 l 1
 165 -55 l 2
 165 -154 129 -217 32 -217 c 0xe8
125 586 m 0xf0
 93 586 68 608 68 639 c 0
 68 671 93 692 125 692 c 0
 156 692 181 671 181 639 c 0
 181 608 156 586 125 586 c 0xf0
EndSplineSet
Validated: 1
EndChar

StartChar: k
Encoding: 107 107 60
Width: 495
GlyphClass: 2
Flags: MW
HStem: 0 21G<82 82 82 163 396 396 396 486> 466 20G<373 464 464 464> 692 20G<82 163 163 163>
VStem: 82 81<0 128 230 712>
LayerCount: 2
Fore
SplineSet
82 0 m 1
 82 712 l 1
 163 712 l 1
 163 230 l 1
 166 230 l 1
 373 486 l 1
 464 486 l 1
 301 291 l 1
 486 0 l 1
 396 0 l 1
 254 234 l 1
 163 128 l 1
 163 0 l 1
 82 0 l 1
EndSplineSet
Validated: 1
EndChar

StartChar: l
Encoding: 108 108 61
Width: 255
GlyphClass: 2
Flags: MW
HStem: -12 68<138 189.5> 692 20G<82 164 164 164>
VStem: 82 82<98 712>
LayerCount: 2
Fore
SplineSet
169 -12 m 0
 107 -12 82 27 82 98 c 2
 82 712 l 1
 164 712 l 1
 164 92 l 2
 164 66 175 56 187 56 c 0
 192 56 196 56 205 58 c 1
 216 -4 l 1
 205 -9 191 -12 169 -12 c 0
EndSplineSet
Validated: 1
Substitution2: "'ss01' Style Set 1 lookup 0 subtable" l.a
EndChar

StartChar: m
Encoding: 109 109 62
Width: 829
GlyphClass: 2
Flags: MW
HStem: 0 21G<82 82 82 164 377 377 377 459 671 671 671 753> 427 71<282 317 575.5 611.5> 466 20G<82 150 150 150>
VStem: 82 82<0 352 0 486> 377 82<0 297 297 342.5> 671 82<0 297 297 308 0 342.5>
LayerCount: 2
Fore
SplineSet
82 0 m 1xdc
 82 486 l 1
 150 486 l 1xbc
 157 416 l 1
 160 416 l 1
 202 462 253 498 311 498 c 0
 385 498 425 463 445 405 c 1
 496 460 546 498 605 498 c 0
 705 498 753 432 753 308 c 2
 753 0 l 1
 671 0 l 1
 671 297 l 2
 671 388 642 427 581 427 c 0
 543 427 504 402 459 352 c 1
 459 0 l 1
 377 0 l 1
 377 297 l 2
 377 388 348 427 286 427 c 0
 250 427 209 402 164 352 c 1
 164 0 l 1
 82 0 l 1xdc
EndSplineSet
Validated: 1
EndChar

StartChar: n
Encoding: 110 110 63
Width: 547
GlyphClass: 2
Flags: MW
HStem: 0 21G<82 82 82 164 389 389 389 471> 427 71<289.5 329> 466 20G<82 150 150 150>
VStem: 82 82<0 352 0 486> 389 82<0 297 297 308 0 342.5>
LayerCount: 2
Fore
SplineSet
82 0 m 1xd8
 82 486 l 1
 150 486 l 1xb8
 157 416 l 1
 160 416 l 1
 206 462 256 498 323 498 c 0
 425 498 471 432 471 308 c 2
 471 0 l 1
 389 0 l 1
 389 297 l 2
 389 388 361 427 297 427 c 0
 247 427 213 401 164 352 c 1
 164 0 l 1
 82 0 l 1xd8
EndSplineSet
Validated: 1
EndChar

StartChar: o
Encoding: 111 111 64
Width: 542
GlyphClass: 2
Flags: MW
HStem: -12 68<229.5 313 229.5 330.5> 430 68<229.5 313>
VStem: 46 85<186.5 298 186.5 323.5> 411 85<186.5 298>
LayerCount: 2
Fore
SplineSet
271 -12 m 0
 152 -12 46 81 46 242 c 0
 46 405 152 498 271 498 c 0
 390 498 496 405 496 242 c 0
 496 81 390 -12 271 -12 c 0
271 56 m 0
 355 56 411 131 411 242 c 0
 411 354 355 430 271 430 c 0
 188 430 131 354 131 242 c 0
 131 131 188 56 271 56 c 0
EndSplineSet
Validated: 1
EndChar

StartChar: p
Encoding: 112 112 65
Width: 555
GlyphClass: 2
Flags: MW
HStem: -205 21G<82 82 82 164> -12 69<274.5 323 267 352.5> 429 69<286.5 340> 466 20G<82 150 150 150>
VStem: 82 82<-205 -41 108 363> 422 85<190 303.5>
LayerCount: 2
Fore
SplineSet
82 -205 m 1xec
 82 486 l 1
 150 486 l 1xdc
 157 430 l 1
 160 430 l 1
 204 467 258 498 315 498 c 0
 440 498 507 401 507 250 c 0
 507 85 408 -12 297 -12 c 0
 252 -12 207 9 162 44 c 1
 164 -41 l 1
 164 -205 l 1
 82 -205 l 1xec
283 57 m 0
 363 57 422 130 422 250 c 0
 422 357 386 429 294 429 c 0
 253 429 212 406 164 363 c 1xec
 164 108 l 1
 208 71 251 57 283 57 c 0
EndSplineSet
Validated: 1
EndChar

StartChar: q
Encoding: 113 113 66
Width: 555
GlyphClass: 2
Flags: MW
HStem: -205 21G<390 390 390 473> -12 69<223.5 276> 429 69<233 286 202.5 292> 466 20G<407 473 473 473>
VStem: 47 85<185 298.5 185 321> 390 83<-205 -32 -32 -32 124 378 378 378>
LayerCount: 2
Fore
SplineSet
390 -205 m 1xec
 390 -32 l 1
 394 56 l 1
 355 18 304 -12 248 -12 c 0
 126 -12 47 80 47 242 c 0
 47 400 147 498 258 498 c 0
 314 498 353 478 397 440 c 1
 399 440 l 1xec
 407 486 l 1
 473 486 l 1xdc
 473 -205 l 1
 390 -205 l 1xec
266 57 m 0
 311 57 350 79 390 124 c 1
 390 378 l 1
 349 415 312 429 272 429 c 0
 194 429 132 354 132 243 c 0
 132 127 181 57 266 57 c 0
EndSplineSet
Validated: 1
EndChar

StartChar: r
Encoding: 114 114 67
Width: 347
GlyphClass: 2
Flags: MW
HStem: 0 21G<82 82 82 164> 424 74<270.5 297> 466 20G<82 150 150 150> 468 20G<350 350>
VStem: 82 82<0 312 0 486>
LayerCount: 2
Fore
SplineSet
82 0 m 1xc8
 82 486 l 1
 150 486 l 1xa8
 157 398 l 1
 160 398 l 1
 193 459 243 498 298 498 c 0xc8
 319 498 334 495 350 488 c 1x98
 334 416 l 1
 318 421 307 424 287 424 c 0
 246 424 197 394 164 312 c 1
 164 0 l 1
 82 0 l 1xc8
EndSplineSet
Validated: 1
EndChar

StartChar: s
Encoding: 115 115 68
Width: 419
GlyphClass: 2
Flags: MW
HStem: -12 64<183 244 183 266.5> 434 64<189.5 241.5>
VStem: 52 79<341 382.5 341 399> 308 79<107 153>
LayerCount: 2
Fore
SplineSet
209 -12 m 0
 140 -12 74 17 28 55 c 1
 69 110 l 1
 111 76 154 52 212 52 c 0
 276 52 308 86 308 128 c 0
 308 178 250 200 197 220 c 0
 128 245 52 278 52 360 c 0
 52 438 114 498 219 498 c 0
 280 498 333 473 370 443 c 1
 331 391 l 1
 298 416 263 434 220 434 c 0
 159 434 131 401 131 364 c 0
 131 318 184 301 239 280 c 0
 309 254 387 225 387 133 c 0
 387 54 324 -12 209 -12 c 0
EndSplineSet
Validated: 1
EndChar

StartChar: t
Encoding: 116 116 69
Width: 338
GlyphClass: 2
Flags: MW
HStem: -12 67<226 250> 419 67<24 100 179 310>
VStem: 96 83<150 419>
LayerCount: 2
Fore
SplineSet
235 -12 m 0
 131 -12 96 54 96 150 c 2
 96 419 l 1
 24 419 l 1
 24 481 l 1
 100 486 l 1
 110 622 l 1
 179 622 l 1
 179 486 l 1
 310 486 l 1
 310 419 l 1
 179 419 l 1
 179 149 l 2
 179 89 198 55 254 55 c 0
 271 55 293 62 309 68 c 1
 325 6 l 1
 298 -3 265 -12 235 -12 c 0
EndSplineSet
Validated: 1
EndChar

StartChar: u
Encoding: 117 117 70
Width: 544
GlyphClass: 2
Flags: MW
HStem: -12 71<217 257.5> 0 21G<394 462 394 394> 466 20G<75 158 158 158 380 462 462 462>
VStem: 75 83<178 189 189 486> 380 82<141 486 0 486>
LayerCount: 2
Fore
SplineSet
224 -12 m 0xb8
 121 -12 75 54 75 178 c 2
 75 486 l 1
 158 486 l 1
 158 189 l 2
 158 98 185 59 249 59 c 0
 299 59 334 84 380 141 c 1xb8
 380 486 l 1
 462 486 l 1
 462 0 l 1
 394 0 l 1x78
 387 76 l 1
 384 76 l 1
 339 23 291 -12 224 -12 c 0xb8
EndSplineSet
Validated: 1
EndChar

StartChar: v
Encoding: 118 118 71
Width: 467
GlyphClass: 2
Flags: MW
HStem: 0 67<187 238 234 238 234 283> 466 20G<12 97 97 97 374 455 455 455>
VStem: 12 443<486 486>
LayerCount: 2
Fore
SplineSet
187 0 m 1
 12 486 l 1
 97 486 l 1
 189 210 l 2
 203 162 219 113 234 67 c 1
 238 67 l 1
 252 113 268 162 282 210 c 2
 374 486 l 1
 455 486 l 1
 283 0 l 1
 187 0 l 1
EndSplineSet
Validated: 1
EndChar

StartChar: w
Encoding: 119 119 72
Width: 718
GlyphClass: 2
Flags: MW
HStem: 0 70<159 213 209 213 209 255 511 515> 401 85<357 361 357 357>
VStem: 24 670<486 486>
LayerCount: 2
Fore
SplineSet
159 0 m 1
 24 486 l 1
 108 486 l 1
 180 205 l 2
 191 159 200 115 209 70 c 1
 213 70 l 1
 224 115 234 160 246 205 c 2
 321 486 l 1
 401 486 l 1
 477 205 l 2
 489 159 500 115 511 70 c 1
 515 70 l 1
 526 115 535 159 545 205 c 2
 616 486 l 1
 694 486 l 1
 564 0 l 1
 464 0 l 1
 394 261 l 2
 382 307 373 352 361 401 c 1
 357 401 l 1
 346 352 336 306 323 260 c 2
 255 0 l 1
 159 0 l 1
EndSplineSet
Validated: 1
EndChar

StartChar: x
Encoding: 120 120 73
Width: 446
GlyphClass: 2
Flags: MW
HStem: 0 21G<14 14 14 100 343 343 343 432> 466 20G<26 115 115 115 335 421 421 421>
VStem: 14 418<0 0>
LayerCount: 2
Fore
SplineSet
14 0 m 1
 173 254 l 1
 26 486 l 1
 115 486 l 1
 180 379 l 2
 195 353 211 325 228 298 c 1
 232 298 l 1
 246 325 261 353 276 379 c 2
 335 486 l 1
 421 486 l 1
 274 245 l 1
 432 0 l 1
 343 0 l 1
 272 113 l 2
 255 142 237 172 219 200 c 1
 215 200 l 1
 198 172 182 143 166 113 c 2
 100 0 l 1
 14 0 l 1
EndSplineSet
Validated: 1
EndChar

StartChar: y
Encoding: 121 121 74
Width: 467
GlyphClass: 2
Flags: MW
HStem: -209 68<80 113.5 80 139> 466 20G<12 97 97 97 375 455 455 455>
VStem: 12 443<486 486>
LayerCount: 2
Fore
SplineSet
90 -209 m 0
 68 -209 49 -205 33 -199 c 1
 49 -134 l 1
 59 -137 74 -141 86 -141 c 0
 141 -141 176 -97 196 -37 c 2
 207 -1 l 1
 12 486 l 1
 97 486 l 1
 196 217 l 2
 211 175 228 125 243 80 c 1
 247 80 l 1
 261 124 275 174 288 217 c 2
 375 486 l 1
 455 486 l 1
 272 -40 l 2
 238 -136 188 -209 90 -209 c 0
EndSplineSet
Validated: 1
EndChar

StartChar: z
Encoding: 122 122 75
Width: 425
GlyphClass: 2
Flags: MW
HStem: 0 67<135 399 135 399> 419 67<59 287 59 391>
VStem: 31 368<0 44 44 44>
LayerCount: 2
Fore
SplineSet
31 0 m 1
 31 44 l 1
 287 419 l 1
 59 419 l 1
 59 486 l 1
 391 486 l 1
 391 442 l 1
 135 67 l 1
 399 67 l 1
 399 0 l 1
 31 0 l 1
EndSplineSet
Validated: 1
EndChar

StartChar: asciitilde
Encoding: 126 126 76
Width: 497
GlyphClass: 2
Flags: MW
HStem: 257 62<310 352.5 310 357.5> 341 62<144.5 187>
VStem: 36 425<313 346>
LayerCount: 2
Fore
SplineSet
336 257 m 0
 257 257 215 341 159 341 c 0
 130 341 105 323 82 280 c 1
 36 313 l 1
 72 377 118 403 161 403 c 0
 240 403 282 319 338 319 c 0
 367 319 392 337 415 380 c 1
 461 346 l 1
 425 283 379 257 336 257 c 0
EndSplineSet
Validated: 1
EndChar

StartChar: two.sups
Encoding: 178 178 77
Width: 367
GlyphClass: 2
Flags: MW
HStem: 395 55<155 320 155 320> 743 54<145.5 185>
VStem: 237 63<633.5 686.5>
LayerCount: 2
Fore
SplineSet
52 395 m 1
 52 432 l 1
 173 541 237 602 237 661 c 0
 237 712 208 743 162 743 c 0
 129 743 100 718 78 686 c 1
 40 721 l 1
 70 766 117 797 170 797 c 0
 248 797 300 753 300 671 c 0
 300 596 238 535 155 450 c 1
 320 450 l 1
 320 395 l 1
 52 395 l 1
EndSplineSet
Validated: 1
EndChar

StartChar: three.sups
Encoding: 179 179 78
Width: 367
GlyphClass: 2
Flags: MW
HStem: 383 51<156.5 198 156.5 218> 573 41<134 167.5 134 172> 746 51<154.5 190.5>
VStem: 240 63<669 702.5> 255 64<481.5 526 464 526.5>
LayerCount: 2
Fore
SplineSet
180 383 m 0xe8
 117 383 65 415 35 459 c 1
 78 492 l 1
 102 456 136 434 177 434 c 0
 219 434 255 459 255 504 c 0xe8
 255 549 210 573 134 573 c 1
 134 614 l 1
 201 614 240 644 240 684 c 0
 240 721 212 746 169 746 c 0
 140 746 112 726 90 699 c 1
 51 733 l 1
 85 772 125 797 179 797 c 0
 246 797 303 758 303 692 c 0xf0
 303 646 275 615 235 596 c 1
 279 585 319 552 319 500 c 0
 319 428 256 383 180 383 c 0xe8
EndSplineSet
Validated: 1
EndChar

StartChar: one.sups
Encoding: 185 185 79
Width: 367
GlyphClass: 2
Flags: MW
HStem: 703 82<87 236>
VStem: 172 64<395 703 703 703>
LayerCount: 2
Fore
SplineSet
172 395 m 1
 172 703 l 1
 87 703 l 1
 87 745 l 1
 131 753 157 765 184 785 c 1
 236 785 l 1
 236 395 l 1
 172 395 l 1
EndSplineSet
Validated: 1
EndChar

StartChar: v.sups
Encoding: 7515 7515 80
Width: 367
GlyphClass: 2
Flags: MW
HStem: 395 49<124 163 159 163 159 197>
VStem: 8 305<716 716>
LayerCount: 2
Fore
SplineSet
124 395 m 1
 8 716 l 1
 70 716 l 1
 128 540 l 1
 159 444 l 1
 163 444 l 1
 194 540 l 1
 252 716 l 1
 313 716 l 1
 197 395 l 1
 124 395 l 1
EndSplineSet
Validated: 1
EndChar

StartChar: endash
Encoding: 8211 8211 81
Width: 480
GlyphClass: 2
Flags: MW
HStem: 223 57<41 439 41 439>
VStem: 41 398<223 280 223 280>
LayerCount: 2
Fore
SplineSet
41 223 m 1
 41 280 l 1
 439 280 l 1
 439 223 l 1
 41 223 l 1
EndSplineSet
Validated: 1
EndChar

StartChar: zero.sups
Encoding: 8304 8304 82
Width: 367
GlyphClass: 2
Flags: MW
HStem: 383 51<158 209.5 158 228.5> 746 51<158 209.5>
VStem: 35 62<539 643 539 656.5> 270 63<539 643>
LayerCount: 2
Fore
SplineSet
184 383 m 0
 94 383 35 458 35 591 c 0
 35 722 94 797 184 797 c 0
 273 797 333 722 333 591 c 0
 333 458 273 383 184 383 c 0
184 434 m 0
 235 434 270 487 270 591 c 0
 270 695 235 746 184 746 c 0
 132 746 97 695 97 591 c 0
 97 487 132 434 184 434 c 0
EndSplineSet
Validated: 1
EndChar

StartChar: four.sups
Encoding: 8308 8308 83
Width: 367
GlyphClass: 2
Flags: MW
HStem: 499 46<109 220 109 220 278 336> 724 61<220 224 220 220>
VStem: 220 58<395 499 395 499 545 615 615 615 724 724>
LayerCount: 2
Fore
SplineSet
220 395 m 1
 220 499 l 1
 42 499 l 1
 42 532 l 1
 206 785 l 1
 278 785 l 1
 278 545 l 1
 336 545 l 1
 336 499 l 1
 278 499 l 1
 278 395 l 1
 220 395 l 1
109 545 m 1
 220 545 l 1
 220 615 l 1
 224 724 l 1
 220 724 l 1
 170 643 l 1
 109 545 l 1
EndSplineSet
Validated: 1
EndChar

StartChar: five.sups
Encoding: 8309 8309 84
Width: 367
GlyphClass: 2
Flags: MW
HStem: 383 51<156.5 202 156.5 222.5> 606 43<183.5 201> 729 56<143 303 143 143>
VStem: 259 64<495 546.5>
LayerCount: 2
Fore
SplineSet
183 383 m 0
 114 383 66 415 35 459 c 1
 78 492 l 1
 103 456 134 434 179 434 c 0
 225 434 259 470 259 520 c 0
 259 573 225 606 177 606 c 0
 146 606 124 592 103 574 c 1
 72 597 l 1
 90 785 l 1
 303 785 l 1
 303 729 l 1
 143 729 l 1
 132 634 l 1
 151 642 172 649 195 649 c 0
 265 649 323 602 323 518 c 0
 323 438 262 383 183 383 c 0
EndSplineSet
Validated: 1
EndChar

StartChar: six.sups
Encoding: 8310 8310 85
Width: 367
GlyphClass: 2
Flags: MW
HStem: 383 51<171 216 171 233> 593 47<185.5 215.5> 746 51<188 230.5>
VStem: 45 61 266 60<490.5 537>
LayerCount: 2
Fore
SplineSet
196 383 m 0
 104 383 45 457 45 580 c 0
 45 727 119 797 215 797 c 0
 260 797 288 783 310 767 c 1
 284 722 l 1
 265 735 244 746 217 746 c 0
 159 746 113 699 106 600 c 1
 134 626 167 640 204 640 c 0
 282 640 326 589 326 515 c 0
 326 440 270 383 196 383 c 0
195 434 m 0
 237 434 266 467 266 514 c 0
 266 560 240 593 191 593 c 0
 162 593 136 582 106 550 c 1
 112 473 147 434 195 434 c 0
EndSplineSet
Validated: 1
EndChar

StartChar: seven.sups
Encoding: 8311 8311 86
Width: 367
GlyphClass: 2
Flags: MW
HStem: 730 55<50 251 50 323>
VStem: 131 67<395 395>
LayerCount: 2
Fore
SplineSet
131 395 m 1
 139 530 171 621 251 730 c 1
 50 730 l 1
 50 785 l 1
 323 785 l 1
 323 749 l 1
 228 628 206 531 198 395 c 1
 131 395 l 1
EndSplineSet
Validated: 1
EndChar

StartChar: eight.sups
Encoding: 8312 8312 87
Width: 367
GlyphClass: 2
Flags: MW
HStem: 383 47<159 203.5 159 221.5> 748 49<165 200>
VStem: 45 60<480.5 514 480.5 516.5> 61 59<673.5 709 673 725> 247 60<679 709> 260 60<478.5 518.5 463.5 521>
LayerCount: 2
Fore
SplineSet
182 383 m 0xe4
 100 383 45 433 45 492 c 0xe4
 45 541 81 579 119 601 c 1
 119 605 l 1
 85 627 61 653 61 694 c 0
 61 756 115 797 182 797 c 0
 252 797 307 757 307 694 c 0xd8
 307 649 274 618 247 600 c 1
 247 596 l 1
 292 573 320 542 320 495 c 0
 320 432 261 383 182 383 c 0xe4
205 618 m 1xd8
 234 640 247 666 247 692 c 0
 247 726 218 748 182 748 c 0
 148 748 120 725 120 693 c 0
 120 653 158 633 205 618 c 1xd8
182 430 m 0xe4
 225 430 260 460 260 497 c 0
 260 545 212 557 159 579 c 1
 124 558 105 530 105 498 c 0
 105 463 136 430 182 430 c 0xe4
EndSplineSet
Validated: 1
EndChar

StartChar: nine.sups
Encoding: 8313 8313 88
Width: 367
GlyphClass: 2
Flags: MW
HStem: 383 51<134.5 177 134.5 198> 540 47<149 179.5> 746 51<148.5 193.5>
VStem: 39 59<643 689.5 643 702.5> 259 61
LayerCount: 2
Fore
SplineSet
173 587 m 0
 203 587 229 598 259 630 c 1
 253 707 218 746 169 746 c 0
 128 746 98 713 98 666 c 0
 98 620 125 587 173 587 c 0
150 383 m 0
 105 383 77 397 54 413 c 1
 81 458 l 1
 100 445 121 434 148 434 c 0
 206 434 253 481 259 581 c 1
 231 554 198 540 161 540 c 0
 83 540 39 591 39 665 c 0
 39 740 95 797 168 797 c 0
 261 797 320 723 320 600 c 0
 320 453 246 383 150 383 c 0
EndSplineSet
Validated: 1
EndChar

StartChar: n.sups
Encoding: 8319 8319 89
Width: 367
GlyphClass: 2
Flags: MW
HStem: 671 53<197.5 223.5>
VStem: 52 62<395 624 395 716> 259 62<395 589 589 598 395 614.5>
LayerCount: 2
Fore
SplineSet
52 395 m 1
 52 716 l 1
 101 716 l 1
 107 671 l 1
 111 671 l 1
 139 700 176 724 219 724 c 0
 294 724 321 673 321 598 c 2
 321 395 l 1
 259 395 l 1
 259 589 l 2
 259 640 248 671 199 671 c 0
 172 671 146 656 114 624 c 1
 114 395 l 1
 52 395 l 1
EndSplineSet
Validated: 1
EndChar

StartChar: zero.sup2
Encoding: 983040 -1 90
Width: 367
GlyphClass: 2
Flags: W
LayerCount: 2
Fore
SplineSet
184 383 m 0
 94 383 35 458 35 591 c 0
 35 722 94 797 184 797 c 0
 273 797 333 722 333 591 c 0
 333 458 273 383 184 383 c 0
184 434 m 0
 235 434 270 487 270 591 c 0
 270 695 235 746 184 746 c 0
 132 746 97 695 97 591 c 0
 97 487 132 434 184 434 c 0
EndSplineSet
Validated: 1
EndChar

StartChar: one.sup2
Encoding: 983041 -1 91
Width: 367
GlyphClass: 2
Flags: W
LayerCount: 2
Fore
SplineSet
172 395 m 1
 172 703 l 1
 87 703 l 1
 87 745 l 1
 131 753 157 765 184 785 c 1
 236 785 l 1
 236 395 l 1
 172 395 l 1
EndSplineSet
Validated: 1
EndChar

StartChar: two.sup2
Encoding: 983042 -1 92
Width: 367
GlyphClass: 2
Flags: W
LayerCount: 2
Fore
SplineSet
52 395 m 1
 52 432 l 1
 173 541 237 602 237 661 c 0
 237 712 208 743 162 743 c 0
 129 743 100 718 78 686 c 1
 40 721 l 1
 70 766 117 797 170 797 c 0
 248 797 300 753 300 671 c 0
 300 596 238 535 155 450 c 1
 320 450 l 1
 320 395 l 1
 52 395 l 1
EndSplineSet
Validated: 1
EndChar

StartChar: three.sup2
Encoding: 983043 -1 93
Width: 367
GlyphClass: 2
Flags: W
LayerCount: 2
Fore
SplineSet
180 383 m 0
 117 383 65 415 35 459 c 1
 78 492 l 1
 102 456 136 434 177 434 c 0
 219 434 255 459 255 504 c 0
 255 549 210 573 134 573 c 1
 134 614 l 1
 201 614 240 644 240 684 c 0
 240 721 212 746 169 746 c 0
 140 746 112 726 90 699 c 1
 51 733 l 1
 85 772 125 797 179 797 c 0
 246 797 303 758 303 692 c 0
 303 646 275 615 235 596 c 1
 279 585 319 552 319 500 c 0
 319 428 256 383 180 383 c 0
EndSplineSet
Validated: 1
EndChar

StartChar: four.sup2
Encoding: 983044 -1 94
Width: 367
GlyphClass: 2
Flags: W
LayerCount: 2
Fore
SplineSet
220 395 m 1
 220 499 l 1
 42 499 l 1
 42 532 l 1
 206 785 l 1
 278 785 l 1
 278 545 l 1
 336 545 l 1
 336 499 l 1
 278 499 l 1
 278 395 l 1
 220 395 l 1
109 545 m 1
 220 545 l 1
 220 615 l 1
 224 724 l 1
 220 724 l 1
 170 643 l 1
 109 545 l 1
EndSplineSet
Validated: 1
EndChar

StartChar: five.sup2
Encoding: 983045 -1 95
Width: 367
GlyphClass: 2
Flags: W
LayerCount: 2
Fore
SplineSet
183 383 m 0
 114 383 66 415 35 459 c 1
 78 492 l 1
 103 456 134 434 179 434 c 0
 225 434 259 470 259 520 c 0
 259 573 225 606 177 606 c 0
 146 606 124 592 103 574 c 1
 72 597 l 1
 90 785 l 1
 303 785 l 1
 303 729 l 1
 143 729 l 1
 132 634 l 1
 151 642 172 649 195 649 c 0
 265 649 323 602 323 518 c 0
 323 438 262 383 183 383 c 0
EndSplineSet
Validated: 1
EndChar

StartChar: six.sup2
Encoding: 983046 -1 96
Width: 367
GlyphClass: 2
Flags: W
LayerCount: 2
Fore
SplineSet
196 383 m 0
 104 383 45 457 45 580 c 0
 45 727 119 797 215 797 c 0
 260 797 288 783 310 767 c 1
 284 722 l 1
 265 735 244 746 217 746 c 0
 159 746 113 699 106 600 c 1
 134 626 167 640 204 640 c 0
 282 640 326 589 326 515 c 0
 326 440 270 383 196 383 c 0
195 434 m 0
 237 434 266 467 266 514 c 0
 266 560 240 593 191 593 c 0
 162 593 136 582 106 550 c 1
 112 473 147 434 195 434 c 0
EndSplineSet
Validated: 1
EndChar

StartChar: seven.sup2
Encoding: 983047 -1 97
Width: 367
GlyphClass: 2
Flags: W
LayerCount: 2
Fore
SplineSet
131 395 m 1
 139 530 171 621 251 730 c 1
 50 730 l 1
 50 785 l 1
 323 785 l 1
 323 749 l 1
 228 628 206 531 198 395 c 1
 131 395 l 1
EndSplineSet
Validated: 1
EndChar

StartChar: eight.sup2
Encoding: 983048 -1 98
Width: 367
GlyphClass: 2
Flags: W
LayerCount: 2
Fore
SplineSet
182 383 m 0
 100 383 45 433 45 492 c 0
 45 541 81 579 119 601 c 1
 119 605 l 1
 85 627 61 653 61 694 c 0
 61 756 115 797 182 797 c 0
 252 797 307 757 307 694 c 0
 307 649 274 618 247 600 c 1
 247 596 l 1
 292 573 320 542 320 495 c 0
 320 432 261 383 182 383 c 0
205 618 m 1
 234 640 247 666 247 692 c 0
 247 726 218 748 182 748 c 0
 148 748 120 725 120 693 c 0
 120 653 158 633 205 618 c 1
182 430 m 0
 225 430 260 460 260 497 c 0
 260 545 212 557 159 579 c 1
 124 558 105 530 105 498 c 0
 105 463 136 430 182 430 c 0
EndSplineSet
Validated: 1
EndChar

StartChar: nine.sup2
Encoding: 983049 -1 99
Width: 367
GlyphClass: 2
Flags: W
LayerCount: 2
Fore
SplineSet
173 587 m 0
 203 587 229 598 259 630 c 1
 253 707 218 746 169 746 c 0
 128 746 98 713 98 666 c 0
 98 620 125 587 173 587 c 0
150 383 m 0
 105 383 77 397 54 413 c 1
 81 458 l 1
 100 445 121 434 148 434 c 0
 206 434 253 481 259 581 c 1
 231 554 198 540 161 540 c 0
 83 540 39 591 39 665 c 0
 39 740 95 797 168 797 c 0
 261 797 320 723 320 600 c 0
 320 453 246 383 150 383 c 0
EndSplineSet
Validated: 1
EndChar

StartChar: N.sup2
Encoding: 983050 -1 100
Width: 367
GlyphClass: 2
Flags: W
LayerCount: 2
Fore
SplineSet
57 395 m 1
 57 827 l 1
 123 827 l 1
 274 564 l 1
 320 474 l 1
 323 474 l 1
 320 517 316 568 316 615 c 2
 316 827 l 1
 374 827 l 1
 374 395 l 1
 309 395 l 1
 158 658 l 1
 111 747 l 1
 109 747 l 1
 112 703 115 655 115 610 c 2
 115 395 l 1
 57 395 l 1
EndSplineSet
Validated: 1
EndChar

StartChar: n.sup2
Encoding: 983051 -1 101
Width: 367
GlyphClass: 2
Flags: W
LayerCount: 2
Fore
SplineSet
52 395 m 1
 52 716 l 1
 101 716 l 1
 107 671 l 1
 111 671 l 1
 139 700 176 724 219 724 c 0
 294 724 321 673 321 598 c 2
 321 395 l 1
 259 395 l 1
 259 589 l 2
 259 640 248 671 199 671 c 0
 172 671 146 656 114 624 c 1
 114 395 l 1
 52 395 l 1
EndSplineSet
Validated: 1
EndChar

StartChar: v.sup2
Encoding: 983052 -1 102
Width: 367
GlyphClass: 2
Flags: MW
HStem: 395 49<124 163 159 163 159 197>
VStem: 8 305<716 716>
LayerCount: 2
Fore
SplineSet
124 395 m 1
 8 716 l 1
 70 716 l 1
 128 540 l 1
 159 444 l 1
 163 444 l 1
 194 540 l 1
 252 716 l 1
 313 716 l 1
 197 395 l 1
 124 395 l 1
EndSplineSet
Validated: 1
EndChar

StartChar: line.sup2
Encoding: 983053 -1 103
Width: 367
GlyphClass: 2
Flags: W
LayerCount: 2
Fore
SplineSet
-5 570 m 1
 -5 611 l 1
 372 611 l 1
 372 570 l 1
 -5 570 l 1
EndSplineSet
Validated: 1
EndChar

StartChar: less.sup2
Encoding: 983055 -1 105
Width: 367
GlyphClass: 2
Flags: MW
HStem: 450 281<334 334>
VStem: 34 300<450 614 450 614>
LayerCount: 2
Fore
SplineSet
334 450 m 1
 34 567 l 1
 34 614 l 1
 334 731 l 1
 334 681 l 1
 186 627 l 1
 93 592 l 1
 93 589 l 1
 186 554 l 1
 334 499 l 1
 334 450 l 1
EndSplineSet
Validated: 1
EndChar

StartChar: greater.sup2
Encoding: 983056 -1 106
Width: 367
GlyphClass: 2
Flags: MW
HStem: 450 281<34 34>
VStem: 34 300<450 614 499 614 567 731 567 731>
LayerCount: 2
Fore
SplineSet
34 450 m 1
 34 499 l 1
 182 554 l 1
 275 589 l 1
 275 592 l 1
 182 627 l 1
 34 681 l 1
 34 731 l 1
 334 614 l 1
 334 567 l 1
 34 450 l 1
EndSplineSet
Validated: 1
EndChar

StartChar: zero.sup3
Encoding: 983072 -1 107
Width: 367
GlyphClass: 2
Flags: W
LayerCount: 2
Fore
SplineSet
184 383 m 0
 94 383 35 458 35 591 c 0
 35 722 94 797 184 797 c 0
 273 797 333 722 333 591 c 0
 333 458 273 383 184 383 c 0
184 434 m 0
 235 434 270 487 270 591 c 0
 270 695 235 746 184 746 c 0
 132 746 97 695 97 591 c 0
 97 487 132 434 184 434 c 0
EndSplineSet
Validated: 1
EndChar

StartChar: one.sup3
Encoding: 983073 -1 108
Width: 367
GlyphClass: 2
Flags: W
LayerCount: 2
Fore
SplineSet
172 395 m 1
 172 703 l 1
 87 703 l 1
 87 745 l 1
 131 753 157 765 184 785 c 1
 236 785 l 1
 236 395 l 1
 172 395 l 1
EndSplineSet
Validated: 1
EndChar

StartChar: two.sup3
Encoding: 983074 -1 109
Width: 367
GlyphClass: 2
Flags: W
LayerCount: 2
Fore
SplineSet
52 395 m 1
 52 432 l 1
 173 541 237 602 237 661 c 0
 237 712 208 743 162 743 c 0
 129 743 100 718 78 686 c 1
 40 721 l 1
 70 766 117 797 170 797 c 0
 248 797 300 753 300 671 c 0
 300 596 238 535 155 450 c 1
 320 450 l 1
 320 395 l 1
 52 395 l 1
EndSplineSet
Validated: 1
EndChar

StartChar: three.sup3
Encoding: 983075 -1 110
Width: 367
GlyphClass: 2
Flags: W
LayerCount: 2
Fore
SplineSet
180 383 m 0
 117 383 65 415 35 459 c 1
 78 492 l 1
 102 456 136 434 177 434 c 0
 219 434 255 459 255 504 c 0
 255 549 210 573 134 573 c 1
 134 614 l 1
 201 614 240 644 240 684 c 0
 240 721 212 746 169 746 c 0
 140 746 112 726 90 699 c 1
 51 733 l 1
 85 772 125 797 179 797 c 0
 246 797 303 758 303 692 c 0
 303 646 275 615 235 596 c 1
 279 585 319 552 319 500 c 0
 319 428 256 383 180 383 c 0
EndSplineSet
Validated: 1
EndChar

StartChar: four.sup3
Encoding: 983076 -1 111
Width: 367
GlyphClass: 2
Flags: W
LayerCount: 2
Fore
SplineSet
220 395 m 1
 220 499 l 1
 42 499 l 1
 42 532 l 1
 206 785 l 1
 278 785 l 1
 278 545 l 1
 336 545 l 1
 336 499 l 1
 278 499 l 1
 278 395 l 1
 220 395 l 1
109 545 m 1
 220 545 l 1
 220 615 l 1
 224 724 l 1
 220 724 l 1
 170 643 l 1
 109 545 l 1
EndSplineSet
Validated: 1
EndChar

StartChar: five.sup3
Encoding: 983077 -1 112
Width: 367
GlyphClass: 2
Flags: W
LayerCount: 2
Fore
SplineSet
183 383 m 0
 114 383 66 415 35 459 c 1
 78 492 l 1
 103 456 134 434 179 434 c 0
 225 434 259 470 259 520 c 0
 259 573 225 606 177 606 c 0
 146 606 124 592 103 574 c 1
 72 597 l 1
 90 785 l 1
 303 785 l 1
 303 729 l 1
 143 729 l 1
 132 634 l 1
 151 642 172 649 195 649 c 0
 265 649 323 602 323 518 c 0
 323 438 262 383 183 383 c 0
EndSplineSet
Validated: 1
EndChar

StartChar: six.sup3
Encoding: 983078 -1 113
Width: 367
GlyphClass: 2
Flags: W
LayerCount: 2
Fore
SplineSet
196 383 m 0
 104 383 45 457 45 580 c 0
 45 727 119 797 215 797 c 0
 260 797 288 783 310 767 c 1
 284 722 l 1
 265 735 244 746 217 746 c 0
 159 746 113 699 106 600 c 1
 134 626 167 640 204 640 c 0
 282 640 326 589 326 515 c 0
 326 440 270 383 196 383 c 0
195 434 m 0
 237 434 266 467 266 514 c 0
 266 560 240 593 191 593 c 0
 162 593 136 582 106 550 c 1
 112 473 147 434 195 434 c 0
EndSplineSet
Validated: 1
EndChar

StartChar: seven.sup3
Encoding: 983079 -1 114
Width: 367
GlyphClass: 2
Flags: W
LayerCount: 2
Fore
SplineSet
131 395 m 1
 139 530 171 621 251 730 c 1
 50 730 l 1
 50 785 l 1
 323 785 l 1
 323 749 l 1
 228 628 206 531 198 395 c 1
 131 395 l 1
EndSplineSet
Validated: 1
EndChar

StartChar: eight.sup3
Encoding: 983080 -1 115
Width: 367
GlyphClass: 2
Flags: W
LayerCount: 2
Fore
SplineSet
182 383 m 0
 100 383 45 433 45 492 c 0
 45 541 81 579 119 601 c 1
 119 605 l 1
 85 627 61 653 61 694 c 0
 61 756 115 797 182 797 c 0
 252 797 307 757 307 694 c 0
 307 649 274 618 247 600 c 1
 247 596 l 1
 292 573 320 542 320 495 c 0
 320 432 261 383 182 383 c 0
205 618 m 1
 234 640 247 666 247 692 c 0
 247 726 218 748 182 748 c 0
 148 748 120 725 120 693 c 0
 120 653 158 633 205 618 c 1
182 430 m 0
 225 430 260 460 260 497 c 0
 260 545 212 557 159 579 c 1
 124 558 105 530 105 498 c 0
 105 463 136 430 182 430 c 0
EndSplineSet
Validated: 1
EndChar

StartChar: nine.sup3
Encoding: 983081 -1 116
Width: 367
GlyphClass: 2
Flags: W
LayerCount: 2
Fore
SplineSet
173 587 m 0
 203 587 229 598 259 630 c 1
 253 707 218 746 169 746 c 0
 128 746 98 713 98 666 c 0
 98 620 125 587 173 587 c 0
150 383 m 0
 105 383 77 397 54 413 c 1
 81 458 l 1
 100 445 121 434 148 434 c 0
 206 434 253 481 259 581 c 1
 231 554 198 540 161 540 c 0
 83 540 39 591 39 665 c 0
 39 740 95 797 168 797 c 0
 261 797 320 723 320 600 c 0
 320 453 246 383 150 383 c 0
EndSplineSet
Validated: 1
EndChar

StartChar: N.sup3
Encoding: 983082 -1 117
Width: 367
GlyphClass: 2
Flags: W
LayerCount: 2
Fore
SplineSet
57 395 m 1
 57 827 l 1
 123 827 l 1
 274 564 l 1
 320 474 l 1
 323 474 l 1
 320 517 316 568 316 615 c 2
 316 827 l 1
 374 827 l 1
 374 395 l 1
 309 395 l 1
 158 658 l 1
 111 747 l 1
 109 747 l 1
 112 703 115 655 115 610 c 2
 115 395 l 1
 57 395 l 1
EndSplineSet
Validated: 1
EndChar

StartChar: n.sup3
Encoding: 983083 -1 118
Width: 367
GlyphClass: 2
Flags: W
LayerCount: 2
Fore
SplineSet
52 395 m 1
 52 716 l 1
 101 716 l 1
 107 671 l 1
 111 671 l 1
 139 700 176 724 219 724 c 0
 294 724 321 673 321 598 c 2
 321 395 l 1
 259 395 l 1
 259 589 l 2
 259 640 248 671 199 671 c 0
 172 671 146 656 114 624 c 1
 114 395 l 1
 52 395 l 1
EndSplineSet
Validated: 1
EndChar

StartChar: v.sup3
Encoding: 983084 -1 119
Width: 367
GlyphClass: 2
Flags: W
LayerCount: 2
Fore
SplineSet
124 395 m 1
 8 716 l 1
 70 716 l 1
 128 540 l 1
 159 444 l 1
 163 444 l 1
 194 540 l 1
 252 716 l 1
 313 716 l 1
 197 395 l 1
 124 395 l 1
EndSplineSet
Validated: 1
EndChar

StartChar: line.sup3
Encoding: 983085 -1 120
Width: 367
GlyphClass: 2
Flags: W
LayerCount: 2
Fore
SplineSet
-5 570 m 1
 -5 611 l 1
 372 611 l 1
 372 570 l 1
 -5 570 l 1
EndSplineSet
Validated: 1
EndChar

StartChar: less.sup3
Encoding: 983087 -1 122
Width: 367
GlyphClass: 2
Flags: MW
HStem: 450 281<334 334>
VStem: 34 300<450 614 450 614>
LayerCount: 2
Fore
SplineSet
334 450 m 1
 34 567 l 1
 34 614 l 1
 334 731 l 1
 334 681 l 1
 186 627 l 1
 93 592 l 1
 93 589 l 1
 186 554 l 1
 334 499 l 1
 334 450 l 1
EndSplineSet
Validated: 1
EndChar

StartChar: greater.sup3
Encoding: 983088 -1 123
Width: 367
GlyphClass: 2
Flags: MW
HStem: 450 281<34 34>
VStem: 34 300<450 614 499 614 567 731 567 731>
LayerCount: 2
Fore
SplineSet
34 450 m 1
 34 499 l 1
 182 554 l 1
 275 589 l 1
 275 592 l 1
 182 627 l 1
 34 681 l 1
 34 731 l 1
 334 614 l 1
 334 567 l 1
 34 450 l 1
EndSplineSet
Validated: 1
EndChar

StartChar: line.sups
Encoding: 983117 983117 124
Width: 367
GlyphClass: 2
Flags: MW
HStem: 570 41<-5 372 -5 372>
LayerCount: 2
Fore
SplineSet
-5 570 m 1
 -5 611 l 1
 372 611 l 1
 372 570 l 1
 -5 570 l 1
EndSplineSet
Validated: 1
EndChar

StartChar: less.sups
Encoding: 983119 983119 126
Width: 367
GlyphClass: 2
Flags: MW
HStem: 450 281<334 334>
VStem: 34 300<450 614 450 614>
LayerCount: 2
Fore
SplineSet
334 450 m 1
 34 567 l 1
 34 614 l 1
 334 731 l 1
 334 681 l 1
 186 627 l 1
 93 592 l 1
 93 589 l 1
 186 554 l 1
 334 499 l 1
 334 450 l 1
EndSplineSet
Validated: 1
EndChar

StartChar: greater.sups
Encoding: 983120 983120 127
Width: 367
GlyphClass: 2
Flags: MW
HStem: 450 281<34 34>
VStem: 34 300<450 614 499 614 567 731 567 731>
LayerCount: 2
Fore
SplineSet
34 450 m 1
 34 499 l 1
 182 554 l 1
 275 589 l 1
 275 592 l 1
 182 627 l 1
 34 681 l 1
 34 731 l 1
 334 614 l 1
 334 567 l 1
 34 450 l 1
EndSplineSet
Validated: 1
EndChar

StartChar: five_greater.subs
Encoding: 983141 983141 128
Width: 734
GlyphClass: 2
Flags: MW
HStem: -189 51<156.5 202 156.5 222.5> 34 43<183.5 201> 157 56<143 303 143 143>
VStem: 259 64<-77 -25.5>
LayerCount: 2
Fore
SplineSet
401 -122 m 1
 401 -73 l 1
 549 -18 l 1
 642 17 l 1
 642 20 l 1
 549 55 l 1
 401 109 l 1
 401 159 l 1
 701 42 l 1
 701 -5 l 1
 401 -122 l 1
183 -189 m 0
 114 -189 66 -157 35 -113 c 1
 78 -80 l 1
 103 -116 134 -138 179 -138 c 0
 225 -138 259 -102 259 -52 c 0
 259 1 225 34 177 34 c 0
 146 34 124 20 103 2 c 1
 72 25 l 1
 90 213 l 5
 303 213 l 1
 303 157 l 1
 143 157 l 1
 132 62 l 1
 151 70 172 77 195 77 c 0
 265 77 323 30 323 -54 c 0
 323 -134 262 -189 183 -189 c 0
EndSplineSet
EndChar

StartChar: nine_greater.subs
Encoding: 983145 983145 129
Width: 734
GlyphClass: 2
Flags: MW
HStem: -189 51<134.5 177 134.5 198> -32 47<149 179.5> 174 51<148.5 193.5>
VStem: 39 59<71 117.5 71 130.5>
LayerCount: 2
Fore
SplineSet
401 -122 m 1
 401 -73 l 1
 549 -18 l 1
 642 17 l 1
 642 20 l 1
 549 55 l 1
 401 109 l 1
 401 159 l 1
 701 42 l 1
 701 -5 l 1
 401 -122 l 1
173 15 m 0
 203 15 229 26 259 58 c 1
 253 135 218 174 169 174 c 0
 128 174 98 141 98 94 c 0
 98 48 125 15 173 15 c 0
150 -189 m 0
 105 -189 77 -175 54 -159 c 1
 81 -114 l 1
 100 -127 121 -138 148 -138 c 0
 206 -138 253 -91 259 9 c 1
 231 -18 198 -32 161 -32 c 0
 83 -32 39 19 39 93 c 0
 39 168 95 225 168 225 c 4
 261 225 320 151 320 28 c 0
 320 -119 246 -189 150 -189 c 0
EndSplineSet
EndChar

StartChar: line.subs
Encoding: 983149 983149 130
Width: 367
GlyphClass: 2
Flags: HMW
HStem: -2 41<-5 372 -5 372>
LayerCount: 2
Fore
SplineSet
-5 -2 m 1
 -5 39 l 1
 372 39 l 1
 372 -2 l 1
 -5 -2 l 1
EndSplineSet
Validated: 1
EndChar

StartChar: less.subs
Encoding: 983151 983151 132
Width: 367
GlyphClass: 2
Flags: HMW
HStem: -122 281<334 334>
VStem: 34 300<-122 42 -122 42>
LayerCount: 2
Fore
SplineSet
334 -122 m 1
 34 -5 l 1
 34 42 l 1
 334 159 l 1
 334 109 l 1
 186 55 l 1
 93 20 l 1
 93 17 l 1
 186 -18 l 1
 334 -73 l 1
 334 -122 l 1
EndSplineSet
Validated: 1
EndChar

StartChar: greater.subs
Encoding: 983152 983152 133
Width: 367
GlyphClass: 2
Flags: HMW
HStem: -122 281<34 34>
VStem: 34 300<-122 42 -73 42 -5 159 -5 159>
LayerCount: 2
Fore
SplineSet
34 -122 m 1
 34 -73 l 1
 182 -18 l 1
 275 17 l 1
 275 20 l 1
 182 55 l 1
 34 109 l 1
 34 159 l 1
 334 42 l 1
 334 -5 l 1
 34 -122 l 1
EndSplineSet
Validated: 1
EndChar

StartChar: slash_D
Encoding: 983168 983168 134
Width: 615
GlyphClass: 2
Flags: W
HStem: 0 68<173 352.026> 588.002 67.999<173 357.821>
VStem: 90 83<68 132.664 274.148 588.002> 478 86<200.484 436.992>
LayerCount: 2
Fore
SplineSet
173 68 m 5
 248 68 l 6
 401 68 478 165 478 331 c 4
 478 371.104492188 473.451171875 406.896484375 464.368164062 438.102539062 c 5
 173 200.381835938 l 5
 173 68 l 5
90 132.6640625 m 5
 23 78.0009765625 l 5
 0 133.000976562 l 5
 90 206.4296875 l 5
 90 656.000976562 l 5
 254 656.000976562 l 6
 369.678710938 656.000976562 454.530273438 617.630859375 505.92578125 545.774414062 c 5
 592 616.000976562 l 5
 615 561.000976562 l 5
 534.27734375 495.140625 l 5
 553.959960938 449.377929688 564 394.418945312 564 331 c 4
 564 122 456 0 258 0 c 6
 90 0 l 5
 90 132.6640625 l 5
441.046875 492.841796875 m 5
 404.173828125 554.916015625 339.752929688 588.001953125 248 588.001953125 c 6
 173 588.001953125 l 5
 173 274.1484375 l 5
 441.046875 492.841796875 l 5
EndSplineSet
Validated: 1
EndChar

StartChar: slash_d
Encoding: 983169 983169 135
Width: 555
GlyphClass: 2
Flags: W
HStem: -12 69<196.699 330.413> 0 21G<402.544 473> 428.999 69.001<205.603 345.03> 692 20G<390 473>
VStem: 47 85.208<130.941 171.544 254.066 342.717> 390 83<102.83 271.243 354.77 395.085 442 712> 405 68<0 57>
LayerCount: 2
Fore
SplineSet
266 57 m 4xbc
 311 57 350 79 390 124 c 5
 390 271.243164062 l 5
 135 195.891601562 l 5
 146.833984375 108.319335938 193.220703125 57 266 57 c 4xbc
52.6025390625 171.543945312 m 5
 0 156 l 5
 0 215 l 5
 47.1748046875 228.939453125 l 5
 47.05859375 233.241210938 47 237.594726562 47 242 c 4
 47 400 147 498 258 498 c 4
 314 498 351 477 394 442 c 5
 390 525 l 5
 390 712 l 5
 473 712 l 5
 473 354.76953125 l 5xbc
 555 379 l 5
 555 320 l 5
 473 295.76953125 l 5
 473 0 l 5
 405 0 l 5x7a
 398 57 l 5
 395 57 l 5
 357 20 305 -12 248 -12 c 4
 144.983398438 -12 72.6259765625 53.5966796875 52.6025390625 171.543945312 c 5
390 330.243164062 m 5
 390 377.999023438 l 5
 349 414.999023438 312 428.999023438 272 428.999023438 c 4
 196.62109375 428.999023438 136.184570312 358.955078125 132.208007812 254.06640625 c 5
 390 330.243164062 l 5
EndSplineSet
Validated: 1
EndChar

StartChar: slash_S
Encoding: 983170 983170 136
Width: 534
GlyphClass: 2
Flags: W
HStem: -12 73<177.602 360.92> 501 20G<486.701 523.614> 595 73<197.742 372.212>
VStem: 74 84<441.979 556.283> 410 85<106.077 229.221>
LayerCount: 2
Fore
SplineSet
272 -12 m 4
 180 -12 99 26 42 85 c 5
 92 143 l 5
 139 94 205 61 273 61 c 4
 359 61 410 104 410 168 c 4
 410 235 363 256 301 284 c 6
 272.061523438 296.622070312 l 5
 16 133 l 5
 0 190 l 5
 209.537109375 323.893554688 l 5
 207 325 l 6
 145 351 74 398 74 494 c 4
 74 594 161 668 280 668 c 4
 358 668 427 635 474 587 c 5
 429 533 l 5
 389 571 341 595 280 595 c 4
 207 595 158 558 158 499 c 4
 158 436 215 412 267 390 c 6
 294.48828125 378.176757812 l 5
 518 521 l 5
 534 464 l 5
 357.3671875 351.1328125 l 5
 360 350 l 6
 436 317 495 272 495 175 c 4
 495 71 410 -12 272 -12 c 4
EndSplineSet
Validated: 1
EndChar

StartChar: slash_s
Encoding: 983171 983171 137
Width: 419
GlyphClass: 2
Flags: W
HStem: -12 63.998<124.146 281.812> 433.998 64<152.564 298.989>
VStem: 52 79<321.969 412.104> 308 79<76.9513 173.086>
LayerCount: 2
Fore
SplineSet
209 -12 m 4
 140 -12 74 16.998046875 28 54.998046875 c 5
 69 109.998046875 l 5
 111 75.998046875 154 51.998046875 212 51.998046875 c 4
 276 51.998046875 308 85.998046875 308 127.998046875 c 4
 308 175.350585938 255.979492188 197.58984375 205.452148438 216.80078125 c 5
 0 155.999023438 l 5
 0 214.999023438 l 5
 124.134765625 251.735351562 l 5
 83.3876953125 274.840820312 52 307.30078125 52 359.998046875 c 4
 52 437.998046875 114 497.998046875 219 497.998046875 c 4
 280 497.998046875 333 472.998046875 370 442.998046875 c 5
 331 390.998046875 l 5
 298 415.998046875 263 433.998046875 220 433.998046875 c 4
 159 433.998046875 131 400.998046875 131 363.998046875 c 4
 131 320.369140625 178.676757812 302.828125 230.517578125 283.21875 c 5
 419 338.999023438 l 5
 419 279.999023438 l 5
 312.658203125 248.528320312 l 5
 354.514648438 225.505859375 387 192.372070312 387 133 c 4
 387 54 324 -12 209 -12 c 4
EndSplineSet
Validated: 1
EndChar

StartChar: slash_T
Encoding: 983172 983172 138
Width: 536
GlyphClass: 2
Flags: MW
HStem: 0 21G<226 310 226 226> 501 20G<518 518> 586 70<28 226 28 508 310 310 310 508>
VStem: 226 84<0 267.189 267.189 267.189 388.089 586>
LayerCount: 2
Fore
SplineSet
226 267.189453125 m 1
 16 133 l 1
 0 190 l 1
 226 334.413085938 l 1
 226 586 l 1
 28 586 l 1
 28 656 l 1
 508 656 l 1
 508 586 l 1
 310 586 l 1
 310 388.088867188 l 1
 518 521 l 1
 534 464 l 1
 310 320.865234375 l 1
 310 0 l 1
 226 0 l 1
 226 267.189453125 l 1
EndSplineSet
Validated: 1
EndChar

StartChar: slash_t
Encoding: 983173 983173 139
Width: 338
GlyphClass: 2
Flags: HMW
HStem: -12 67<226 250> 419 67<24 100 179 310>
VStem: 96 83<150 184.402 184.402 184.402 267.959 419> 110 69<622 622>
LayerCount: 2
Fore
SplineSet
235 -12 m 0xe0
 131 -12 96 54 96 150 c 2
 96 184.40234375 l 1
 0 156 l 1
 0 215 l 1
 96 243.40234375 l 1
 96 419 l 1xe0
 24 419 l 1
 24 481 l 1
 100 486 l 1
 110 622 l 1
 179 622 l 1
 179 486 l 1xd0
 310 486 l 1
 310 419 l 1
 179 419 l 1
 179 267.958984375 l 1xe0
 338 315 l 5
 338 256 l 1
 179 208.958984375 l 1xd0
 179 149 l 2
 179 89 198 55 254 55 c 0
 271 55 293 62 309 68 c 1
 325 6 l 1
 298 -3 265 -12 235 -12 c 0xe0
EndSplineSet
Validated: 1
EndChar

StartChar: D_D
Encoding: 983200 983200 140
Width: 790
GlyphClass: 2
Flags: W
HStem: -175.001 68.001<348 527.024> -0.000976562 68<172.998 264.998> 412.999 68<347.997 447.027> 587.999 68<172.998 358.303>
VStem: 89.999 82.999<67.999 587.999> 264.998 82.999<-107 0.0507812 85.5527 412.999> 477.997 86.0029<198.753 375.347> 652.999 85.999<25.4827 286.111>
LayerCount: 2
Fore
SplineSet
348 -107 m 5
 422.999023438 -107.000976562 l 6
 575.999023438 -107.000976562 652.999023438 -10.0009765625 652.999023438 155.999023438 c 4
 652.999023438 259.572265625 622.659179688 334.381835938 562.2265625 375.727539062 c 5
 563.407226562 361.325195312 564 346.412109375 564 331 c 4
 564 156.245117188 488.4921875 42.3154296875 348 9.671875 c 5
 348 -107 l 5
89.9990234375 -0.0009765625 m 5
 89.998046875 655.999023438 l 5
 253.998046875 655.999023438 l 6
 407.2734375 655.999023438 506.426757812 588.634765625 545.342773438 465.265625 c 5
 672.174804688 426.916992188 738.998046875 319.610351562 738.998046875 155.999023438 c 4
 738.998046875 -53.0009765625 630.998046875 -175.000976562 432.998046875 -175.000976562 c 6
 264.998046875 -175.000976562 l 5
 264.998046875 0.05078125 l 6
 262.677734375 0.0166015625 260.344726562 -0.0009765625 257.999023438 -0.0009765625 c 6
 89.9990234375 -0.0009765625 l 5
172.998046875 67.9990234375 m 5
 247.997070312 67.9990234375 l 6
 253.772460938 67.9990234375 259.439453125 68.1376953125 264.998046875 68.412109375 c 5
 264.998046875 480.999023438 l 5
 428.998046875 480.999023438 l 6
 435.338867188 480.999023438 441.586914062 480.883789062 447.7421875 480.654296875 c 5
 412.25 550.57421875 345.58203125 587.999023438 247.998046875 587.999023438 c 6
 172.998046875 587.999023438 l 5
 172.998046875 67.9990234375 l 5
471.157226562 409.62109375 m 5
 456.041992188 411.864257812 439.98828125 412.999023438 422.997070312 412.999023438 c 6
 347.997070312 412.999023438 l 5
 347.997070312 85.552734375 l 5
 434.522460938 120.491210938 477.997070312 206.266601562 477.997070312 331 c 4
 477.997070312 359.40234375 475.715820312 385.641601562 471.157226562 409.62109375 c 5
EndSplineSet
Validated: 1
EndChar

StartChar: d_d
Encoding: 983201 983201 141
Width: 705
GlyphClass: 2
Flags: W
HStem: -162 69<344.294 480.412> 0 21G<402.544 473> 274.611 72.5264<349.307 389.999> 429.001 68.999<206.04 345.029> 692 20G<390 473>
VStem: 47 84.999<132.185 344.816> 196.999 85<76.8307 193.494> 389.999 83.001<102.349 270.338 344.27 395.086 442 712> 405 68<0 57> 540 82.999<-47.1699 245.514 292 562> 554.999 68<-150 -93>
LayerCount: 2
Fore
SplineSet
416 -93 m 4xfe80
 461 -93 500 -71 540 -26 c 5
 540 228 l 5
 516.809570312 248.928710938 494.8984375 262.498046875 473 270.337890625 c 5xff40
 473 0 l 5
 405 0 l 5
 398 57 l 5
 395 57 l 5
 368.21875 30.923828125 334.483398438 7.3310546875 296.9453125 -4.3271484375 c 5
 317.47265625 -60.9658203125 358.499023438 -93 416 -93 c 4xfe80
473 336.405273438 m 5xfe80
 497.712890625 326.815429688 519.9140625 311.603515625 543.999023438 292 c 5
 539.999023438 375 l 5
 539.999023438 562 l 5
 622.999023438 562 l 5xfec0
 622.999023438 -150 l 5
 554.999023438 -150 l 5
 547.999023438 -93 l 5
 544.999023438 -93 l 5
 506.999023438 -130 454.999023438 -162 397.999023438 -162 c 4
 304.139648438 -162 235.731445312 -107.546875 209.166992188 -8.6572265625 c 5
 109.5 9.1943359375 47 97.9072265625 47 242 c 4
 47 400 147 498 258 498 c 4
 314 498 351 477 394 442 c 5
 390 525 l 5
 390 712 l 5
 473 712 l 5xff20
 473 336.405273438 l 5xfe80
197.236328125 76.7880859375 m 5
 197.078125 81.7880859375 196.999023438 86.859375 196.999023438 92.0009765625 c 4
 196.999023438 241.407226562 286.416992188 337.163085938 389.999023438 347.137695312 c 5
 389.999023438 378.000976562 l 5xff
 348.999023438 415.000976562 311.999023438 429.000976562 271.999023438 429.000976562 c 4
 193.999023438 429.000976562 131.999023438 354.000976562 131.999023438 243.000976562 c 4
 131.999023438 163.262695312 155.15234375 105.259765625 197.236328125 76.7880859375 c 5
389.999023438 274.611328125 m 5
 327.704101562 257.069335938 281.999023438 188.303710938 281.999023438 93 c 4
 281.999023438 80.8759765625 282.534179688 69.25390625 283.58984375 58.162109375 c 5
 321.353515625 63.2353515625 355.299804688 84.9638671875 389.999023438 124 c 5
 389.999023438 274.611328125 l 5
EndSplineSet
Validated: 1
EndChar

StartChar: S_S
Encoding: 983202 983202 142
Width: 744
GlyphClass: 2
Flags: W
HStem: -192 73<387.602 570.92> -12 73<177.602 361.244> 415 73<409.264 582.211> 595 73<197.741 372.211>
VStem: 73.999 84<441.979 556.283> 620 85<-73.9233 49.2212>
LayerCount: 2
Fore
SplineSet
272 -12 m 4
 180 -12 99 26 42 85 c 5
 92 143 l 5
 139 94 205 61 273 61 c 4
 350.055664062 61 399.012695312 95.521484375 408.362304688 148.73828125 c 5
 353.870117188 173.086914062 295.365234375 214.294921875 285.4609375 290.77734375 c 5
 206.999023438 325 l 6
 144.999023438 351 73.9990234375 398 73.9990234375 494 c 4
 73.9990234375 594 160.999023438 668 279.999023438 668 c 4
 357.999023438 668 426.999023438 635 473.999023438 587 c 5
 428.999023438 533 l 5
 388.999023438 571 340.999023438 595 279.999023438 595 c 4
 206.999023438 595 157.999023438 558 157.999023438 499 c 4
 157.999023438 436 214.999023438 412 266.999023438 390 c 6
 296.682617188 377.232421875 l 5
 324.936523438 443.655273438 397.879882812 488 489.999023438 488 c 4
 567.999023438 488 636.999023438 455 683.999023438 407 c 5
 638.999023438 353 l 5
 598.999023438 391 550.999023438 415 489.999023438 415 c 4
 428.348632812 415 383.815429688 388.610351562 371.458984375 344.866210938 c 5
 434.305664062 315.779296875 483.41015625 276.61328125 493.212890625 203.026367188 c 5
 570 170 l 6
 646 137 705 92 705 -5 c 4
 705 -109 620 -192 482 -192 c 4
 390 -192 309 -154 252 -95 c 5
 302 -37 l 5
 349 -86 415 -119 483 -119 c 4
 569 -119 620 -76 620 -12 c 4
 620 55 573 76 511 104 c 6
 484.96484375 115.35546875 l 5
 458.702148438 40.99609375 382.271484375 -12 272 -12 c 4
EndSplineSet
Validated: 1
EndChar

StartChar: s_s
Encoding: 983203 983203 143
Width: 569
GlyphClass: 2
Flags: W
HStem: -162.001 64<274.147 431.813> -12 63.9971<124.146 283.304> 283.998 64<302.95 448.99> 433.998 64<152.565 298.99>
VStem: 52.001 79<321.807 412.104> 458.001 79<-73.0487 23.0794>
LayerCount: 2
Fore
SplineSet
209 -12 m 4
 140 -12 74.0009765625 16.9970703125 28.0009765625 54.9970703125 c 5
 69.0009765625 109.997070312 l 5
 111.000976562 75.9970703125 154.000976562 51.9970703125 212.000976562 51.9970703125 c 4
 254.806640625 51.9970703125 283.296875 67.20703125 297.47265625 89.84765625 c 5
 246.020507812 113.565429688 202.000976562 147.590820312 202.000976562 209.997070312 c 4
 202.000976562 212.6953125 202.075195312 215.372070312 202.22265625 218.025390625 c 4
 200.478515625 218.685546875 198.737304688 219.342773438 197.000976562 219.998046875 c 4
 128.000976562 244.998046875 52.0009765625 277.998046875 52.0009765625 359.998046875 c 4
 52.0009765625 437.998046875 114.000976562 497.998046875 219.000976562 497.998046875 c 4
 280.000976562 497.998046875 333.000976562 472.998046875 370.000976562 442.998046875 c 5
 331.000976562 390.998046875 l 5
 298.000976562 415.998046875 263.000976562 433.998046875 220.000976562 433.998046875 c 4
 159.000976562 433.998046875 131.000976562 400.998046875 131.000976562 363.998046875 c 4
 131.000976562 321.869140625 175.456054688 304.064453125 225.188476562 285.234375 c 5
 252.174804688 323.40234375 301.774414062 347.998046875 369.000976562 347.998046875 c 4
 430.000976562 347.998046875 483.000976562 322.998046875 520.000976562 292.998046875 c 5
 481.000976562 240.998046875 l 5
 448.000976562 265.998046875 413.000976562 283.998046875 370.000976562 283.998046875 c 4
 334.897460938 283.998046875 310.72265625 273.0703125 296.5234375 256.740234375 c 5
 345.861328125 233.399414062 387.000976562 199.813476562 387.000976562 132.999023438 c 4
 387.000976562 132.25390625 386.995117188 131.509765625 386.984375 130.767578125 c 4
 387.65625 130.51171875 388.328125 130.255859375 389.000976562 129.999023438 c 4
 459.000976562 103.999023438 537.000976562 74.9990234375 537.000976562 -17.0009765625 c 4
 537.000976562 -96.0009765625 474.000976562 -162.000976562 359.000976562 -162.000976562 c 4
 290.000976562 -162.000976562 224.000976562 -133.000976562 178.000976562 -95.0009765625 c 5
 219.000976562 -40.0009765625 l 5
 261.000976562 -74.0009765625 304.000976562 -98.0009765625 362.000976562 -98.0009765625 c 4
 426.000976562 -98.0009765625 458.000976562 -64.0009765625 458.000976562 -22.0009765625 c 4
 458.000976562 21.5732421875 413.951171875 43.8818359375 367.549804688 62.1337890625 c 5
 340.73828125 18.171875 286.754882812 -12 209 -12 c 4
EndSplineSet
Validated: 1
EndChar

StartChar: slash_D_D
Encoding: 983232 983232 144
Width: 790
GlyphClass: 2
Flags: W
HStem: -175.001 68.001<347.999 527.023> -0.000976562 68.001<173 264.997> 587.999 67.999<172.997 359.204>
VStem: 89.9971 83<68 170.663 312.146 587.999> 264.997 83.002<-107 0.0507812 85.5537 313.442> 478 85.999<198.754 375.347> 652.998 85.999<25.4827 286.111>
LayerCount: 2
Fore
SplineSet
471.16015625 409.622070312 m 5
 456.044921875 411.865234375 439.991210938 413 423 413 c 6
 387.024414062 413 l 5
 348 381.16015625 l 5
 348 85.5537109375 l 5
 434.525390625 120.4921875 478 206.267578125 478 331.000976562 c 4
 478 359.403320312 475.71875 385.642578125 471.16015625 409.622070312 c 5
173 68 m 5
 247.999023438 68 l 6
 253.774414062 68 259.44140625 68.138671875 265 68.4130859375 c 5
 265 313.442382812 l 5
 173 238.381835938 l 5
 173 68 l 5
347.999023438 -107 m 5
 422.998046875 -107.000976562 l 6
 575.998046875 -107.000976562 652.998046875 -10.0009765625 652.998046875 155.999023438 c 4
 652.998046875 259.572265625 622.658203125 334.381835938 562.225585938 375.727539062 c 5
 563.40625 361.325195312 563.999023438 346.412109375 563.999023438 331 c 4
 563.999023438 156.245117188 488.491210938 42.3154296875 347.999023438 9.671875 c 5
 347.999023438 -107 l 5
89.998046875 170.663085938 m 5
 22.9970703125 115.998046875 l 5
 -0.0029296875 170.998046875 l 5
 89.9970703125 244.426757812 l 5
 89.9970703125 655.998046875 l 5
 253.997070312 655.998046875 l 6
 356.715820312 655.998046875 435.127929688 625.744140625 487.392578125 568.654296875 c 5
 591.99609375 653.998046875 l 5
 614.99609375 598.998046875 l 5
 520.895507812 522.223632812 l 5
 530.698242188 504.828125 538.856445312 485.82421875 545.341796875 465.265625 c 5
 672.173828125 426.916992188 738.997070312 319.610351562 738.997070312 155.999023438 c 4
 738.997070312 -53.0009765625 630.997070312 -175.000976562 432.997070312 -175.000976562 c 6
 264.997070312 -175.000976562 l 5
 264.997070312 0.05078125 l 6
 262.676757812 0.0166015625 260.34375 -0.0009765625 257.998046875 -0.0009765625 c 6
 89.998046875 -0.0009765625 l 5
 89.998046875 170.663085938 l 5
264.997070312 387.206054688 m 5
 264.997070312 480.998046875 l 5
 379.956054688 480.998046875 l 5
 424.091796875 517.0078125 l 5
 385.75390625 563.462890625 327.009765625 587.999023438 247.997070312 587.999023438 c 6
 172.997070312 587.999023438 l 5
 172.997070312 312.145507812 l 5
 264.997070312 387.206054688 l 5
EndSplineSet
Validated: 1
EndChar

StartChar: a.a
Encoding: 1114113 -1 145
Width: 555
GlyphClass: 2
Flags: MW
HStem: -12 69<223.5 276.5> 0 21G<405 473 405 405> 429 69<233 286 203.5 292> 466 20G<406 473 473 473>
VStem: 47 85<185 298.5 185 321> 390 83<124 378 378 378>
LayerCount: 2
Fore
SplineSet
248 -12 m 0xac
 126 -12 47 80 47 242 c 0
 47 400 148 498 259 498 c 0
 313 498 353 478 397 439 c 1
 399 439 l 1xac
 406 486 l 1
 473 486 l 1
 473 0 l 1
 405 0 l 1x5c
 398 57 l 1
 395 57 l 1
 357 20 305 -12 248 -12 c 0xac
266 57 m 0
 311 57 350 79 390 124 c 1
 390 378 l 1
 349 415 312 429 272 429 c 0
 194 429 132 354 132 243 c 0
 132 127 181 57 266 57 c 0
EndSplineSet
Validated: 1
EndChar

StartChar: g.a
Encoding: 1114114 -1 146
Width: 559
GlyphClass: 2
Flags: MW
HStem: -216 66<236 303.5 236 328> 5 68<225.5 278.5> 429 69<235 288.5 206 294> 466 20G<406 475 475 475>
VStem: 50 84<196.5 303 196.5 326> 393 82<-22 -22 140 378 378 378>
LayerCount: 2
Fore
SplineSet
259 -216 m 0xec
 199 -216 136 -197 85 -163 c 1
 115 -105 l 1
 163 -137 213 -150 259 -150 c 0
 348 -150 390 -100 393 -22 c 2
 394 70 l 1
 357 34 307 5 250 5 c 0
 128 5 50 97 50 250 c 0
 50 402 151 498 261 498 c 0
 316 498 356 478 397 441 c 1
 399 441 l 1xec
 406 486 l 1
 475 486 l 1xdc
 475 -24 l 2
 475 -144 397 -216 259 -216 c 0xec
268 73 m 0
 313 73 351 95 393 140 c 1
 393 378 l 1
 351 415 314 429 274 429 c 0
 196 429 134 355 134 251 c 0
 134 142 183 73 268 73 c 0
EndSplineSet
Validated: 1
EndChar

StartChar: l.a
Encoding: 1114115 -1 147
Width: 246
GlyphClass: 2
Flags: MW
HStem: 0 21G<82 82 82 164> 692 20G<82 164 164 164>
VStem: 82 82<0 712 0 712>
LayerCount: 2
Fore
SplineSet
82 0 m 1
 82 712 l 1
 164 712 l 1
 164 0 l 1
 82 0 l 1
EndSplineSet
Validated: 1
EndChar

StartChar: N.sups
Encoding: 1114116 -1 148
Width: 367
GlyphClass: 2
Flags: MW
HStem: 395 79<309 323 320 323 320 374>
VStem: 57 58<395 610 395 827> 316 58<615 827 395 827>
LayerCount: 2
Fore
SplineSet
57 395 m 1
 57 827 l 1
 123 827 l 1
 274 564 l 1
 320 474 l 1
 323 474 l 1
 320 517 316 568 316 615 c 2
 316 827 l 1
 374 827 l 1
 374 395 l 1
 309 395 l 1
 158 658 l 1
 111 747 l 1
 109 747 l 1
 112 703 115 655 115 610 c 2
 115 395 l 1
 57 395 l 1
EndSplineSet
Validated: 1
EndChar

StartChar: slash_S_S
Encoding: 983234 983234 149
Width: 744
Flags: W
HStem: -192 73<387.602 570.92> -12 73<177.602 361.18> 415 73<407.236 582.212> 595 73<197.742 306.26>
VStem: 74 84<442.668 556.283> 620 85<-73.9233 49.2212>
LayerCount: 2
Fore
SplineSet
272 -12 m 4
 180 -12 99 26 42 85 c 5
 92 143 l 5
 139 94 205 61 273 61 c 4
 350 61 399 96 408 149 c 5
 354 173 295 215 285 291 c 5
 207 325 l 6
 194.972589732 330.043752693 182.606488678 335.877783886 170.485721646 342.706502261 c 5
 69 222 l 5
 37 272 l 5
 124.444666279 376.048083926 l 5
 95.150670593 403.803494891 74 441.603276607 74 494 c 4
 74 594 161 668 280 668 c 4
 307.960712866 668 334.76491469 663.759459515 359.813774489 656.107529139 c 5
 432 742 l 5
 465 693 l 5
 414.319284998 632.720664733 l 5
 436.726139067 620.067054402 456.830946562 604.534352448 474 587 c 5
 429 533 l 5
 410.214431283 550.846290281 389.664374606 565.604726632 366.831909503 576.239468121 c 5
 225.84869779 408.554890553 l 5
 239.151259829 401.774092152 253.250418191 395.817130765 267 390 c 6
 297 377 l 5
 325 443 398 488 490 488 c 4
 568 488 637 455 684 407 c 5
 639 353 l 5
 599 391 551 415 490 415 c 4
 428 415 383 389 371 345 c 5
 434 316 483 277 493 203 c 5
 570 170 l 6
 646 137 705 92 705 -5 c 4
 705 -109 620 -192 482 -192 c 4
 390 -192 309 -154 252 -95 c 5
 302 -37 l 5
 349 -86 415 -119 483 -119 c 4
 569 -119 620 -76 620 -12 c 4
 620 55 573 76 511 104 c 6
 485 115 l 5
 459 41 382 -12 272 -12 c 4
307.07416721 593.354072377 m 5
 298.341172953 594.439459503 289.322399528 595 280 595 c 4
 207 595 158 558 158 499 c 4
 158 474.865653141 166.364979039 456.454712992 179.609343981 441.687067522 c 5
 307.07416721 593.354072377 l 5
EndSplineSet
Validated: 1
EndChar

StartChar: zero.subs
Encoding: 8320 8320 150
Width: 367
Flags: W
HStem: -189 51<158 209.5 158 228.5> 174 51<158 209.5>
VStem: 35 62<-33 71 -33 84.5> 270 63<-33 71>
LayerCount: 2
Fore
SplineSet
184 -189 m 0
 94 -189 35 -114 35 19 c 0
 35 150 94 225 184 225 c 4
 273 225 333 150 333 19 c 0
 333 -114 273 -189 184 -189 c 0
184 -138 m 0
 235 -138 270 -85 270 19 c 0
 270 123 235 174 184 174 c 0
 132 174 97 123 97 19 c 0
 97 -85 132 -138 184 -138 c 0
EndSplineSet
EndChar

StartChar: one.subs
Encoding: 8321 8321 151
Width: 367
Flags: W
HStem: 131 82<87 236>
VStem: 172 64<-177 131 131 131>
LayerCount: 2
Fore
SplineSet
172 -177 m 1
 172 131 l 1
 87 131 l 1
 87 173 l 1
 131 181 157 193 184 213 c 1
 236 213 l 1
 236 -177 l 1
 172 -177 l 1
EndSplineSet
EndChar

StartChar: two.subs
Encoding: 8322 8322 152
Width: 367
Flags: W
HStem: -177 55<155 320 155 320> 171 54<145.5 185>
VStem: 237 63<61.5 114.5>
LayerCount: 2
Fore
SplineSet
52 -177 m 1
 52 -140 l 1
 173 -31 237 30 237 89 c 0
 237 140 208 171 162 171 c 0
 129 171 100 146 78 114 c 1
 40 149 l 1
 70 194 117 225 170 225 c 0
 248 225 300 181 300 99 c 0
 300 24 238 -37 155 -122 c 1
 320 -122 l 1
 320 -177 l 1
 52 -177 l 1
EndSplineSet
EndChar

StartChar: three.subs
Encoding: 8323 8323 153
Width: 367
Flags: W
HStem: -189 51<156.5 198 156.5 218> 1 41<134 167.5 134 172> 174 51<154.5 190.5>
VStem: 240 63<97 130.5> 255 64<-90.5 -46 -108 -45.5>
LayerCount: 2
Fore
SplineSet
180 -189 m 0xe8
 117 -189 65 -157 35 -113 c 1
 78 -80 l 1
 102 -116 136 -138 177 -138 c 0
 219 -138 255 -113 255 -68 c 0xe8
 255 -23 210 1 134 1 c 1
 134 42 l 1
 201 42 240 72 240 112 c 0
 240 149 212 174 169 174 c 0
 140 174 112 154 90 127 c 1
 51 161 l 1
 85 200 125 225 179 225 c 0
 246 225 303 186 303 120 c 0xf0
 303 74 275 43 235 24 c 1
 279 13 319 -20 319 -72 c 0
 319 -144 256 -189 180 -189 c 0xe8
EndSplineSet
EndChar

StartChar: four.subs
Encoding: 8324 8324 154
Width: 367
Flags: W
HStem: -73 46<109 220 109 220 278 336> 152 61<220 224 220 220>
VStem: 220 58<-177 -73 -177 -73 -27 43 43 43 152 152>
LayerCount: 2
Fore
SplineSet
220 -177 m 1
 220 -73 l 1
 42 -73 l 1
 42 -40 l 1
 206 213 l 1
 278 213 l 1
 278 -27 l 1
 336 -27 l 1
 336 -73 l 1
 278 -73 l 1
 278 -177 l 1
 220 -177 l 1
109 -27 m 1
 220 -27 l 1
 220 43 l 1
 224 152 l 1
 220 152 l 1
 170 71 l 1
 109 -27 l 1
EndSplineSet
EndChar

StartChar: five.subs
Encoding: 8325 8325 155
Width: 367
Flags: W
HStem: -189 51<156.5 202 156.5 222.5> 34 43<183.5 201> 157 56<143 303 143 143>
VStem: 259 64<-77 -25.5>
LayerCount: 2
Fore
SplineSet
183 -189 m 0
 114 -189 66 -157 35 -113 c 1
 78 -80 l 1
 103 -116 134 -138 179 -138 c 0
 225 -138 259 -102 259 -52 c 0
 259 1 225 34 177 34 c 0
 146 34 124 20 103 2 c 1
 72 25 l 1
 90 213 l 1
 303 213 l 5
 303 157 l 1
 143 157 l 1
 132 62 l 1
 151 70 172 77 195 77 c 0
 265 77 323 30 323 -54 c 0
 323 -134 262 -189 183 -189 c 0
EndSplineSet
EndChar

StartChar: six.subs
Encoding: 8326 8326 156
Width: 367
Flags: W
HStem: -189 51<171 216 171 233> 21 47<185.5 215.5> 174 51<188 230.5>
VStem: 45 61 266 60<-81.5 -35>
LayerCount: 2
Fore
SplineSet
196 -189 m 0
 104 -189 45 -115 45 8 c 0
 45 155 119 225 215 225 c 0
 260 225 288 211 310 195 c 1
 284 150 l 1
 265 163 244 174 217 174 c 0
 159 174 113 127 106 28 c 1
 134 54 167 68 204 68 c 0
 282 68 326 17 326 -57 c 0
 326 -132 270 -189 196 -189 c 0
195 -138 m 0
 237 -138 266 -105 266 -58 c 0
 266 -12 240 21 191 21 c 0
 162 21 136 10 106 -22 c 1
 112 -99 147 -138 195 -138 c 0
EndSplineSet
EndChar

StartChar: seven.subs
Encoding: 8327 8327 157
Width: 367
Flags: W
HStem: 158 55<50 251 50 323>
VStem: 131 67<-177 -177>
LayerCount: 2
Fore
SplineSet
131 -177 m 1
 139 -42 171 49 251 158 c 1
 50 158 l 1
 50 213 l 1
 323 213 l 1
 323 177 l 1
 228 56 206 -41 198 -177 c 1
 131 -177 l 1
EndSplineSet
EndChar

StartChar: eight.subs
Encoding: 8328 8328 158
Width: 367
Flags: W
HStem: -189 47<159 203.5 159 221.5> 176 49<165 200>
VStem: 45 60<-91.5 -58 -91.5 -55.5> 61 59<101.5 137 101 153> 247 60<107 137> 260 60<-93.5 -53.5 -108.5 -51>
LayerCount: 2
Fore
SplineSet
182 -189 m 0xe4
 100 -189 45 -139 45 -80 c 0xe4
 45 -31 81 7 119 29 c 1
 119 33 l 1
 85 55 61 81 61 122 c 0
 61 184 115 225 182 225 c 0
 252 225 307 185 307 122 c 0xd8
 307 77 274 46 247 28 c 1
 247 24 l 1
 292 1 320 -30 320 -77 c 0
 320 -140 261 -189 182 -189 c 0xe4
205 46 m 1xd8
 234 68 247 94 247 120 c 0
 247 154 218 176 182 176 c 0
 148 176 120 153 120 121 c 0
 120 81 158 61 205 46 c 1xd8
182 -142 m 0xe4
 225 -142 260 -112 260 -75 c 0
 260 -27 212 -15 159 7 c 1
 124 -14 105 -42 105 -74 c 0
 105 -109 136 -142 182 -142 c 0xe4
EndSplineSet
EndChar

StartChar: nine.subs
Encoding: 8329 8329 159
Width: 367
Flags: W
HStem: -189 51<134.5 177 134.5 198> -32 47<149 179.5> 174 51<148.5 193.5>
VStem: 39 59<71 117.5 71 130.5> 259 61
LayerCount: 2
Fore
SplineSet
173 15 m 0
 203 15 229 26 259 58 c 1
 253 135 218 174 169 174 c 0
 128 174 98 141 98 94 c 0
 98 48 125 15 173 15 c 0
150 -189 m 0
 105 -189 77 -175 54 -159 c 1
 81 -114 l 1
 100 -127 121 -138 148 -138 c 0
 206 -138 253 -91 259 9 c 1
 231 -18 198 -32 161 -32 c 0
 83 -32 39 19 39 93 c 0
 39 168 95 225 168 225 c 0
 261 225 320 151 320 28 c 0
 320 -119 246 -189 150 -189 c 0
EndSplineSet
EndChar
